<svg width="28" height="27" viewBox="0 0 28 27" fill="none" xmlns="http://www.w3.org/2000/svg">
<path d="M27.5897 6.00107C27.0836 5.08611 26.1437 4.51614 25.1315 4.50114H6.62268L5.784 1.11132C5.61048 0.43635 5.00316 -0.0286269 4.338 0.0013716H1.446C0.6507 0.0013716 0 0.676337 0 1.5013C0 2.32625 0.6507 3.00122 1.446 3.00122H3.23904L7.23 18.3904C7.40352 19.0654 8.01084 19.5304 8.676 19.5004H21.69C22.2395 19.5004 22.7311 19.1854 22.9769 18.6754L27.7198 8.83592C28.1392 7.93597 28.0813 6.87102 27.5897 6.00107Z" fill="white"/>
<path d="M7.953 27C9.15091 27 10.122 25.9927 10.122 24.7501C10.122 23.5075 9.15091 22.5002 7.953 22.5002C6.7551 22.5002 5.784 23.5075 5.784 24.7501C5.784 25.9927 6.7551 27 7.953 27Z" fill="white"/>
<path d="M22.413 27C23.6109 27 24.582 25.9927 24.582 24.7501C24.582 23.5075 23.6109 22.5002 22.413 22.5002C21.2151 22.5002 20.244 23.5075 20.244 24.7501C20.244 25.9927 21.2151 27 22.413 27Z" fill="white"/>
</svg>
