<svg width="6" height="5" viewBox="0 0 6 5" fill="none" xmlns="http://www.w3.org/2000/svg">
<path id="Vector" fill-rule="evenodd" clip-rule="evenodd" d="M3.24506 0.115615C3.39788 -0.0385383 3.6456 -0.0385383 3.79842 0.115615L5.88537 2.2209C5.95878 2.2949 6 2.39532 6 2.50001C6 2.60469 5.95878 2.70511 5.88537 2.77911L3.79842 4.88438C3.6456 5.03854 3.39788 5.03854 3.24506 4.88438C3.09224 4.73022 3.09224 4.48033 3.24506 4.32617L4.66398 2.89474H0.391304C0.175195 2.89474 0 2.71801 0 2.50001C0 2.28201 0.175195 2.10527 0.391304 2.10527H4.66398L3.24506 0.673858C3.09224 0.519705 3.09224 0.269768 3.24506 0.115615Z" fill="#279EB5"/>
</svg>
