<svg width="18" height="18" viewBox="0 0 18 18" fill="none" xmlns="http://www.w3.org/2000/svg">
<path d="M17.1 16.1053H0.9C0.661305 16.1053 0.432387 16.2051 0.263604 16.3827C0.0948211 16.5604 0 16.8014 0 17.0526C0 17.3039 0.0948211 17.5449 0.263604 17.7225C0.432387 17.9002 0.661305 18 0.9 18H17.1C17.3387 18 17.5676 17.9002 17.7364 17.7225C17.9052 17.5449 18 17.3039 18 17.0526C18 16.8014 17.9052 16.5604 17.7364 16.3827C17.5676 16.2051 17.3387 16.1053 17.1 16.1053Z" fill="#1FACC7"/>
<path d="M9 0C8.7613 0 8.53239 0.0998117 8.3636 0.277478C8.19482 0.455144 8.1 0.696111 8.1 0.947368V10.98L5.139 7.85368C4.96953 7.67529 4.73967 7.57507 4.5 7.57507C4.26033 7.57507 4.03047 7.67529 3.861 7.85368C3.69153 8.03208 3.59632 8.27403 3.59632 8.52632C3.59632 8.7786 3.69153 9.02055 3.861 9.19895L8.361 13.9358C8.44467 14.0246 8.54421 14.0951 8.65388 14.1432C8.76355 14.1913 8.88119 14.216 9 14.216C9.11881 14.216 9.23645 14.1913 9.34612 14.1432C9.45579 14.0951 9.55533 14.0246 9.639 13.9358L14.139 9.19895C14.2229 9.11062 14.2895 9.00575 14.3349 8.89034C14.3803 8.77493 14.4037 8.65123 14.4037 8.52632C14.4037 8.4014 14.3803 8.2777 14.3349 8.16229C14.2895 8.04688 14.2229 7.94202 14.139 7.85368C14.0551 7.76535 13.9555 7.69528 13.8458 7.64748C13.7362 7.59968 13.6187 7.57507 13.5 7.57507C13.3813 7.57507 13.2638 7.59968 13.1542 7.64748C13.0445 7.69528 12.9449 7.76535 12.861 7.85368L9.9 10.98V0.947368C9.9 0.696111 9.80518 0.455144 9.6364 0.277478C9.46761 0.0998117 9.23869 0 9 0Z" fill="#1FACC7"/>
</svg>
