<svg width="75" height="75" viewBox="0 0 75 75" fill="none" xmlns="http://www.w3.org/2000/svg">
<path d="M74.2863 10.9933L50.0927 0.10615C49.777 -0.0353832 49.4153 -0.0353832 49.1008 0.10615L25.4032 10.7695L1.70565 0.10615C1.33306 -0.0607865 0.897581 -0.0281252 0.552823 0.193247C0.208065 0.417038 0 0.799298 0 1.20938V62.9032C0 63.3798 0.279436 63.8104 0.71371 64.0064L24.9073 74.8935C25.223 75.0351 25.5847 75.0351 25.8992 74.8935L49.5968 64.2302L73.2944 74.8935C73.4528 74.9649 73.621 75 73.7903 75C74.0202 75 74.2488 74.9347 74.4472 74.8065C74.7919 74.5827 75 74.2004 75 73.7903V12.0965C75 11.6199 74.7206 11.1893 74.2863 10.9933ZM26.6129 12.8792L48.3871 3.08076V62.1217L26.6129 71.9201V12.8792ZM2.41935 3.07955L24.1935 12.878V71.9189L2.41935 62.1205V3.07955ZM72.5806 71.9201L50.8065 62.1217V3.08076L72.5806 12.8792V71.9201Z" fill="white"/>
<path d="M21.0302 14.609L6.51411 8.56062C6.13911 8.40457 5.71331 8.44449 5.37823 8.6707C5.04073 8.8957 4.83871 9.27312 4.83871 9.67716V25.403C4.83871 25.8917 5.13266 26.3321 5.58266 26.5196L20.0988 32.568C20.2488 32.6309 20.4073 32.6611 20.5645 32.6611C20.7992 32.6611 21.0339 32.5922 21.2359 32.4579C21.5722 32.2329 21.7742 31.8555 21.7742 31.4514V15.7256C21.7742 15.2369 21.4802 14.7965 21.0302 14.609ZM19.3548 29.6369L7.25806 24.5962V11.4917L19.3548 16.5324V29.6369Z" fill="white"/>
<path d="M5.58629 32.5801L6.51774 30.347L21.0327 36.4015L20.1012 38.6345L5.58629 32.5801Z" fill="white"/>
<path d="M5.58508 38.6309L6.51653 36.3978L21.0315 42.4523L20.1 44.6854L5.58508 38.6309Z" fill="white"/>
<path d="M5.58508 44.6817L6.51653 42.4487L21.0315 48.5031L20.1 50.7362L5.58508 44.6817Z" fill="white"/>
<path d="M5.58508 50.7326L6.51653 48.4995L21.0315 54.5539L20.1 56.787L5.58508 50.7326Z" fill="white"/>
<path d="M45.4294 42.5418C45.0944 42.3156 44.6673 42.2757 44.2936 42.4317L29.7774 48.4801C29.3262 48.6676 29.0323 49.108 29.0323 49.5967V65.3225C29.0323 65.7266 29.2343 66.104 29.5706 66.329C29.7726 66.4633 30.006 66.5322 30.2419 66.5322C30.3992 66.5322 30.5577 66.502 30.7077 66.4391L45.2238 60.3907C45.6738 60.2032 45.9677 59.7628 45.9677 59.2741V43.5483C45.9677 43.1442 45.7657 42.7668 45.4294 42.5418ZM43.5484 58.4673L31.4516 63.508V50.4035L43.5484 45.3628V58.4673Z" fill="white"/>
<path d="M29.7847 42.4281L44.2996 36.3736L45.231 38.6067L30.7161 44.6612L29.7847 42.4281Z" fill="white"/>
<path d="M29.7835 36.3797L44.2984 30.3252L45.2298 32.5583L30.7149 38.6128L29.7835 36.3797Z" fill="white"/>
<path d="M29.7823 30.3313L44.2972 24.2768L45.2286 26.5099L30.7137 32.5643L29.7823 30.3313Z" fill="white"/>
<path d="M29.781 24.2829L44.296 18.2284L45.2274 20.4615L30.7125 26.5159L29.781 24.2829Z" fill="white"/>
<path d="M53.9698 26.5196L68.4859 32.568C68.6359 32.6309 68.7944 32.6611 68.9516 32.6611C69.1863 32.6611 69.421 32.5922 69.623 32.4579C69.9593 32.2329 70.1613 31.8555 70.1613 31.4514V15.7256C70.1613 15.2369 69.8673 14.7965 69.4173 14.609L54.9012 8.56062C54.5274 8.40457 54.1016 8.44449 53.7653 8.6707C53.4278 8.8957 53.2258 9.27312 53.2258 9.67716V25.403C53.2258 25.8917 53.5198 26.3321 53.9698 26.5196ZM55.6452 11.4917L67.7419 16.5324V29.6369L55.6452 24.5962V11.4917Z" fill="white"/>
<path d="M53.9915 32.5837L54.923 30.3506L69.4379 36.4051L68.5065 38.6382L53.9915 32.5837Z" fill="white"/>
<path d="M53.9915 38.6345L54.923 36.4015L69.4379 42.4559L68.5065 44.689L53.9915 38.6345Z" fill="white"/>
<path d="M53.9903 44.6854L54.9218 42.4523L69.4367 48.5067L68.5052 50.7398L53.9903 44.6854Z" fill="white"/>
<path d="M53.9903 50.7362L54.9218 48.5031L69.4367 54.5576L68.5052 56.7907L53.9903 50.7362Z" fill="white"/>
</svg>
