<svg width="17" height="22" viewBox="0 0 17 22" fill="none" xmlns="http://www.w3.org/2000/svg">
<path id="Vector" d="M8.37891 0C3.75891 0 0 3.75891 0 8.37891C0 10.2072 0.5775 11.9445 1.67148 13.402L7.86242 21.7401C7.87789 21.7603 7.90152 21.768 7.91871 21.7861C8.22809 22.1173 8.67453 22.034 8.89496 21.7401C10.6777 19.3613 13.9455 14.9188 15.2019 13.243L15.2028 13.2408L15.2105 13.2305C16.2229 11.8082 16.7578 10.1307 16.7578 8.37891C16.7578 3.75891 12.9989 0 8.37891 0ZM8.37891 12.8992C5.89145 12.8992 3.85859 10.8664 3.85859 8.37891C3.85859 5.89145 5.89145 3.85859 8.37891 3.85859C10.8664 3.85859 12.8992 5.89145 12.8992 8.37891C12.8992 10.8664 10.8664 12.8992 8.37891 12.8992Z" fill="#05839B"/>
</svg>
