<svg width="19" height="19" viewBox="0 0 19 19" fill="none" xmlns="http://www.w3.org/2000/svg">
<path d="M13.3 0H1.9C1.39629 0.00065355 0.913396 0.201041 0.557219 0.557219C0.201041 0.913396 0.00065355 1.39629 0 1.9V16.15C0.000824786 16.9056 0.301357 17.63 0.835657 18.1643C1.36996 18.6986 2.09439 18.9992 2.85 19H14.25C14.3748 19.0001 14.4983 18.9755 14.6136 18.9278C14.7289 18.8801 14.8337 18.8101 14.9219 18.7219C15.0101 18.6337 15.0801 18.5289 15.1278 18.4136C15.1755 18.2983 15.2001 18.1748 15.2 18.05V1.9C15.1993 1.39629 14.999 0.913396 14.6428 0.557219C14.2866 0.201041 13.8037 0.00065355 13.3 0ZM4.275 3.8H7.125C7.37696 3.8 7.61859 3.90009 7.79675 4.07825C7.97491 4.25641 8.075 4.49804 8.075 4.75C8.075 5.00196 7.97491 5.24359 7.79675 5.42175C7.61859 5.59991 7.37696 5.7 7.125 5.7H4.275C4.02304 5.7 3.78141 5.59991 3.60325 5.42175C3.42509 5.24359 3.325 5.00196 3.325 4.75C3.325 4.49804 3.42509 4.25641 3.60325 4.07825C3.78141 3.90009 4.02304 3.8 4.275 3.8ZM10.925 15.675H4.275C4.02304 15.675 3.78141 15.5749 3.60325 15.3968C3.42509 15.2186 3.325 14.977 3.325 14.725C3.325 14.473 3.42509 14.2314 3.60325 14.0532C3.78141 13.8751 4.02304 13.775 4.275 13.775H10.925C11.177 13.775 11.4186 13.8751 11.5968 14.0532C11.7749 14.2314 11.875 14.473 11.875 14.725C11.875 14.977 11.7749 15.2186 11.5968 15.3968C11.4186 15.5749 11.177 15.675 10.925 15.675ZM10.925 12.35H4.275C4.02304 12.35 3.78141 12.2499 3.60325 12.0718C3.42509 11.8936 3.325 11.652 3.325 11.4C3.325 11.148 3.42509 10.9064 3.60325 10.7282C3.78141 10.5501 4.02304 10.45 4.275 10.45H10.925C11.177 10.45 11.4186 10.5501 11.5968 10.7282C11.7749 10.9064 11.875 11.148 11.875 11.4C11.875 11.652 11.7749 11.8936 11.5968 12.0718C11.4186 12.2499 11.177 12.35 10.925 12.35ZM10.925 9.025H4.275C4.02304 9.025 3.78141 8.92491 3.60325 8.74675C3.42509 8.56859 3.325 8.32696 3.325 8.075C3.325 7.82304 3.42509 7.58141 3.60325 7.40325C3.78141 7.22509 4.02304 7.125 4.275 7.125H10.925C11.177 7.125 11.4186 7.22509 11.5968 7.40325C11.7749 7.58141 11.875 7.82304 11.875 8.075C11.875 8.32696 11.7749 8.56859 11.5968 8.74675C11.4186 8.92491 11.177 9.025 10.925 9.025Z" fill="#05839B"/>
<path d="M16.15 19H14.25C14.1252 19.0001 14.0017 18.9755 13.8864 18.9278C13.7711 18.8801 13.6663 18.8101 13.5781 18.7219C13.4899 18.6337 13.4199 18.5289 13.3722 18.4136C13.3245 18.2983 13.2999 18.1748 13.3 18.05V6.65C13.2999 6.52522 13.3245 6.40166 13.3722 6.28637C13.4199 6.17107 13.4899 6.06632 13.5781 5.97809C13.6663 5.88986 13.7711 5.81989 13.8864 5.77217C14.0017 5.72445 14.1252 5.69993 14.25 5.7H18.05C18.1748 5.69993 18.2983 5.72445 18.4136 5.77217C18.5289 5.81989 18.6337 5.88986 18.7219 5.97809C18.8101 6.06632 18.8801 6.17107 18.9278 6.28637C18.9755 6.40166 19.0001 6.52522 19 6.65V16.15C18.9992 16.9056 18.6986 17.63 18.1643 18.1643C17.63 18.6986 16.9056 18.9992 16.15 19ZM15.2 17.1H16.15C16.4019 17.0998 16.6434 16.9997 16.8216 16.8216C16.9997 16.6434 17.0998 16.4019 17.1 16.15V7.6H15.2V17.1Z" fill="#05839B"/>
</svg>
