<svg width="95" height="43" viewBox="0 0 95 43" fill="none" xmlns="http://www.w3.org/2000/svg">
<path d="M1.35227 16V5.81818H4.63849C5.36103 5.81818 5.96425 5.95739 6.44815 6.2358C6.93537 6.51089 7.30161 6.88542 7.54688 7.35938C7.79545 7.83333 7.91974 8.36695 7.91974 8.96023C7.91974 9.5535 7.79711 10.0888 7.55185 10.5661C7.30658 11.04 6.942 11.4162 6.4581 11.6946C5.9742 11.9697 5.37263 12.1072 4.65341 12.1072H2.06818V11.272H4.62855C5.16217 11.272 5.60464 11.1726 5.95597 10.9737C6.30729 10.7715 6.56913 10.4964 6.74148 10.1484C6.91714 9.80043 7.00497 9.40436 7.00497 8.96023C7.00497 8.5161 6.91714 8.12003 6.74148 7.77202C6.56913 7.42401 6.30563 7.15057 5.95099 6.9517C5.59967 6.75284 5.15388 6.65341 4.61364 6.65341H2.28196V16H1.35227ZM12.0511 16.174C11.5904 16.174 11.1695 16.0845 10.7884 15.9055C10.4072 15.7232 10.1039 15.4614 9.87855 15.12C9.65317 14.7753 9.54048 14.3577 9.54048 13.8672C9.54048 13.4893 9.61174 13.1712 9.75426 12.9126C9.89678 12.6541 10.099 12.442 10.3608 12.2763C10.6226 12.1106 10.9325 11.9796 11.2905 11.8835C11.6484 11.7874 12.0429 11.7128 12.4737 11.6598C12.9013 11.6068 13.2625 11.5604 13.5575 11.5206C13.8558 11.4808 14.0829 11.4179 14.2386 11.3317C14.3944 11.2455 14.4723 11.1063 14.4723 10.9141V10.7351C14.4723 10.2147 14.3165 9.8054 14.005 9.5071C13.6967 9.20549 13.2526 9.05469 12.6726 9.05469C12.1224 9.05469 11.6733 9.17566 11.3253 9.41761C10.9806 9.65956 10.7386 9.9446 10.5994 10.2727L9.75923 9.96946C9.93158 9.55185 10.1702 9.21875 10.4751 8.97017C10.7801 8.71828 11.1214 8.53764 11.4993 8.42827C11.8771 8.31558 12.2599 8.25923 12.6477 8.25923C12.9394 8.25923 13.2427 8.29735 13.5575 8.37358C13.8757 8.44981 14.1707 8.58239 14.4425 8.77131C14.7143 8.95691 14.9347 9.21709 15.1037 9.55185C15.2727 9.88329 15.3572 10.3042 15.3572 10.8146V16H14.4723V14.7919H14.4176C14.3116 15.0173 14.1541 15.236 13.9453 15.4482C13.7365 15.6603 13.4747 15.8343 13.1598 15.9702C12.8449 16.1061 12.4754 16.174 12.0511 16.174ZM12.1705 15.3636C12.6411 15.3636 13.0488 15.2592 13.3935 15.0504C13.7382 14.8416 14.0033 14.5649 14.1889 14.2202C14.3778 13.8722 14.4723 13.4893 14.4723 13.0717V11.968C14.406 12.031 14.295 12.0874 14.1392 12.1371C13.9867 12.1868 13.8094 12.2315 13.6072 12.2713C13.4084 12.3078 13.2095 12.3393 13.0107 12.3658C12.8118 12.3923 12.6328 12.4155 12.4737 12.4354C12.0429 12.4884 11.675 12.5713 11.37 12.6839C11.0651 12.7966 10.8314 12.9524 10.669 13.1513C10.5066 13.3468 10.4254 13.5987 10.4254 13.907C10.4254 14.371 10.5911 14.7306 10.9226 14.9858C11.254 15.2377 11.67 15.3636 12.1705 15.3636ZM17.2191 14.0511H18.1587C18.1853 14.4588 18.3609 14.777 18.6857 15.0057C19.0105 15.2344 19.4381 15.3487 19.9684 15.3487C20.5186 15.3487 20.9727 15.2261 21.3306 14.9808C21.6886 14.7322 21.8675 14.371 21.8675 13.897C21.8675 13.6087 21.7996 13.3584 21.6637 13.1463C21.5311 12.9342 21.3488 12.7685 21.1168 12.6491C20.8881 12.5265 20.628 12.4635 20.3363 12.4602H19.0039V11.6499H20.3214C20.7754 11.6233 21.1201 11.5007 21.3555 11.282C21.5908 11.0599 21.7085 10.7699 21.7085 10.4119C21.7085 10.0043 21.5643 9.67779 21.2759 9.43253C20.9876 9.18395 20.5965 9.05966 20.1026 9.05966C19.6022 9.05966 19.1862 9.18229 18.8548 9.42756C18.5233 9.67282 18.3477 9.98769 18.3278 10.3722H17.3981C17.4147 9.95786 17.5389 9.59328 17.771 9.27841C18.003 8.96023 18.3162 8.71165 18.7106 8.53267C19.1083 8.35369 19.5591 8.2642 20.0629 8.2642C20.5799 8.2642 21.029 8.35701 21.4102 8.54261C21.7913 8.72822 22.0863 8.98177 22.2951 9.30327C22.5039 9.62145 22.6083 9.98272 22.6083 10.3871C22.6083 10.808 22.4923 11.1544 22.2603 11.4261C22.0316 11.6946 21.7383 11.8835 21.3803 11.9929V12.0675C21.6521 12.0973 21.8907 12.1967 22.0962 12.3658C22.305 12.5348 22.4691 12.7519 22.5884 13.017C22.7077 13.2822 22.7674 13.5755 22.7674 13.897C22.7674 14.3478 22.6497 14.7438 22.4144 15.0852C22.1791 15.4233 21.851 15.6868 21.43 15.8757C21.0124 16.0646 20.5302 16.1591 19.9833 16.1591C19.4563 16.1591 18.9873 16.0713 18.5763 15.8956C18.1654 15.7166 17.8389 15.4697 17.5969 15.1548C17.3583 14.8366 17.2324 14.4688 17.2191 14.0511ZM24.5882 18.8636V8.36364H25.4483V9.82031H25.5527C25.6588 9.59162 25.8046 9.35795 25.9902 9.11932C26.1758 8.87737 26.4211 8.67353 26.726 8.50781C27.0343 8.34209 27.4221 8.25923 27.8894 8.25923C28.5191 8.25923 29.0693 8.42495 29.54 8.75639C30.0139 9.08452 30.3818 9.54522 30.6436 10.1385C30.9088 10.7285 31.0414 11.4162 31.0414 12.2017C31.0414 12.9905 30.9088 13.6816 30.6436 14.2749C30.3818 14.8681 30.0139 15.3305 29.54 15.6619C29.0693 15.9934 28.5224 16.1591 27.8993 16.1591C27.4386 16.1591 27.0525 16.0762 26.7409 15.9105C26.4327 15.7448 26.1825 15.541 25.9902 15.299C25.8013 15.0537 25.6555 14.8151 25.5527 14.5831H25.4732V18.8636H24.5882ZM25.4632 12.1868C25.4632 12.8033 25.5544 13.3501 25.7367 13.8274C25.9223 14.3014 26.1874 14.6742 26.5321 14.946C26.8801 15.2145 27.3011 15.3487 27.7949 15.3487C28.302 15.3487 28.7296 15.2095 29.0776 14.9311C29.4289 14.6494 29.6957 14.2699 29.878 13.7926C30.0636 13.3153 30.1564 12.7801 30.1564 12.1868C30.1564 11.6001 30.0653 11.0715 29.883 10.6009C29.704 10.1302 29.4389 9.75734 29.0875 9.48224C28.7362 9.20384 28.3053 9.06463 27.7949 9.06463C27.2978 9.06463 26.8752 9.19886 26.5272 9.46733C26.1792 9.73248 25.914 10.1004 25.7317 10.571C25.5527 11.0384 25.4632 11.5769 25.4632 12.1868ZM35.1156 16.174C34.6549 16.174 34.234 16.0845 33.8528 15.9055C33.4717 15.7232 33.1684 15.4614 32.943 15.12C32.7176 14.7753 32.6049 14.3577 32.6049 13.8672C32.6049 13.4893 32.6762 13.1712 32.8187 12.9126C32.9612 12.6541 33.1634 12.442 33.4252 12.2763C33.6871 12.1106 33.997 11.9796 34.3549 11.8835C34.7129 11.7874 35.1073 11.7128 35.5382 11.6598C35.9657 11.6068 36.327 11.5604 36.622 11.5206C36.9203 11.4808 37.1473 11.4179 37.3031 11.3317C37.4589 11.2455 37.5368 11.1063 37.5368 10.9141V10.7351C37.5368 10.2147 37.381 9.8054 37.0694 9.5071C36.7612 9.20549 36.3171 9.05469 35.737 9.05469C35.1868 9.05469 34.7377 9.17566 34.3897 9.41761C34.045 9.65956 33.8031 9.9446 33.6639 10.2727L32.8237 9.96946C32.996 9.55185 33.2347 9.21875 33.5396 8.97017C33.8445 8.71828 34.1859 8.53764 34.5637 8.42827C34.9416 8.31558 35.3244 8.25923 35.7122 8.25923C36.0038 8.25923 36.3071 8.29735 36.622 8.37358C36.9402 8.44981 37.2351 8.58239 37.5069 8.77131C37.7787 8.95691 37.9991 9.21709 38.1681 9.55185C38.3372 9.88329 38.4217 10.3042 38.4217 10.8146V16H37.5368V14.7919H37.4821C37.376 15.0173 37.2186 15.236 37.0098 15.4482C36.801 15.6603 36.5391 15.8343 36.2243 15.9702C35.9094 16.1061 35.5398 16.174 35.1156 16.174ZM35.2349 15.3636C35.7056 15.3636 36.1132 15.2592 36.4579 15.0504C36.8026 14.8416 37.0678 14.5649 37.2534 14.2202C37.4423 13.8722 37.5368 13.4893 37.5368 13.0717V11.968C37.4705 12.031 37.3594 12.0874 37.2037 12.1371C37.0512 12.1868 36.8739 12.2315 36.6717 12.2713C36.4728 12.3078 36.274 12.3393 36.0751 12.3658C35.8762 12.3923 35.6973 12.4155 35.5382 12.4354C35.1073 12.4884 34.7394 12.5713 34.4345 12.6839C34.1296 12.7966 33.8959 12.9524 33.7335 13.1513C33.5711 13.3468 33.4899 13.5987 33.4899 13.907C33.4899 14.371 33.6556 14.7306 33.987 14.9858C34.3185 15.2377 34.7344 15.3636 35.2349 15.3636ZM46.2743 5.5L46.7367 6.06179C46.5279 6.26397 46.2776 6.40317 45.986 6.4794C45.6976 6.55232 45.3745 6.59375 45.0165 6.60369C44.6619 6.61364 44.2791 6.62855 43.8681 6.64844C43.2781 6.67827 42.7926 6.83239 42.4114 7.1108C42.0302 7.38589 41.7402 7.78362 41.5414 8.30398C41.3458 8.82102 41.2232 9.45241 41.1735 10.1982H41.2729C41.5281 9.67779 41.8877 9.28172 42.3517 9.00994C42.8191 8.73816 43.3328 8.60227 43.8929 8.60227C44.4796 8.60227 45.0066 8.74645 45.4739 9.0348C45.9445 9.31984 46.3158 9.73911 46.5875 10.2926C46.8626 10.8428 47.0002 11.514 47.0002 12.3061C47.0002 13.0883 46.8626 13.7694 46.5875 14.3494C46.3124 14.9261 45.928 15.3719 45.4341 15.6868C44.9403 16.0017 44.3619 16.1591 43.699 16.1591C43.0328 16.1591 42.4495 16.0033 41.949 15.6918C41.4519 15.3769 41.0658 14.9145 40.7907 14.3047C40.5189 13.6915 40.383 12.9375 40.383 12.0426V11.2422C40.383 9.46236 40.6647 8.12334 41.2282 7.22514C41.7916 6.32694 42.6583 5.85795 43.8283 5.81818C44.2061 5.80492 44.5492 5.80161 44.8574 5.80824C45.1657 5.81155 45.4374 5.79664 45.6728 5.76349C45.9081 5.72704 46.1086 5.6392 46.2743 5.5ZM43.699 15.3487C44.1929 15.3487 44.6204 15.2244 44.9817 14.9759C45.343 14.724 45.6214 14.3693 45.8169 13.9119C46.0158 13.4545 46.1152 12.9193 46.1152 12.3061C46.1152 11.6963 46.0141 11.1759 45.812 10.745C45.6131 10.3142 45.3347 9.98437 44.9767 9.75568C44.6188 9.52699 44.1995 9.41264 43.7189 9.41264C43.3411 9.41264 43.0014 9.48556 42.6998 9.63139C42.4015 9.77391 42.1462 9.97775 41.9341 10.2429C41.722 10.508 41.5596 10.8196 41.4469 11.1776C41.3342 11.5355 41.2762 11.9283 41.2729 12.3558C41.2729 13.2805 41.4883 14.0114 41.9192 14.5483C42.3534 15.0819 42.9467 15.3487 43.699 15.3487ZM51.9059 16.1591C51.2463 16.1591 50.663 15.9917 50.1559 15.657C49.6521 15.3222 49.2577 14.8598 48.9727 14.2699C48.6876 13.6766 48.5451 12.9922 48.5451 12.2166C48.5451 11.4344 48.6876 10.7467 48.9727 10.1534C49.2577 9.55682 49.6521 9.0928 50.1559 8.76136C50.663 8.42661 51.2463 8.25923 51.9059 8.25923C52.5655 8.25923 53.1471 8.42661 53.6509 8.76136C54.1547 9.09612 54.5491 9.56013 54.8342 10.1534C55.1225 10.7467 55.2667 11.4344 55.2667 12.2166C55.2667 12.9922 55.1242 13.6766 54.8391 14.2699C54.5541 14.8598 54.158 15.3222 53.6509 15.657C53.1471 15.9917 52.5655 16.1591 51.9059 16.1591ZM51.9059 15.3487C52.4362 15.3487 52.8853 15.2062 53.2532 14.9212C53.6211 14.6361 53.8995 14.2566 54.0884 13.7827C54.2807 13.3087 54.3768 12.7867 54.3768 12.2166C54.3768 11.6465 54.2807 11.1229 54.0884 10.6456C53.8995 10.1683 53.6211 9.78551 53.2532 9.49716C52.8853 9.20881 52.4362 9.06463 51.9059 9.06463C51.3789 9.06463 50.9298 9.20881 50.5586 9.49716C50.1907 9.78551 49.9106 10.1683 49.7184 10.6456C49.5295 11.1229 49.435 11.6465 49.435 12.2166C49.435 12.7867 49.5295 13.3087 49.7184 13.7827C49.9106 14.2566 50.1907 14.6361 50.5586 14.9212C50.9265 15.2062 51.3756 15.3487 51.9059 15.3487ZM56.1815 9.19886V8.36364H62.1474V9.19886H59.6218V16H58.7369V9.19886H56.1815ZM65.7543 16.174C65.2936 16.174 64.8726 16.0845 64.4915 15.9055C64.1103 15.7232 63.8071 15.4614 63.5817 15.12C63.3563 14.7753 63.2436 14.3577 63.2436 13.8672C63.2436 13.4893 63.3149 13.1712 63.4574 12.9126C63.5999 12.6541 63.8021 12.442 64.0639 12.2763C64.3258 12.1106 64.6357 11.9796 64.9936 11.8835C65.3516 11.7874 65.746 11.7128 66.1768 11.6598C66.6044 11.6068 66.9657 11.5604 67.2607 11.5206C67.5589 11.4808 67.786 11.4179 67.9418 11.3317C68.0975 11.2455 68.1754 11.1063 68.1754 10.9141V10.7351C68.1754 10.2147 68.0196 9.8054 67.7081 9.5071C67.3999 9.20549 66.9557 9.05469 66.3757 9.05469C65.8255 9.05469 65.3764 9.17566 65.0284 9.41761C64.6837 9.65956 64.4418 9.9446 64.3026 10.2727L63.4624 9.96946C63.6347 9.55185 63.8733 9.21875 64.1783 8.97017C64.4832 8.71828 64.8246 8.53764 65.2024 8.42827C65.5803 8.31558 65.9631 8.25923 66.3509 8.25923C66.6425 8.25923 66.9458 8.29735 67.2607 8.37358C67.5788 8.44981 67.8738 8.58239 68.1456 8.77131C68.4174 8.95691 68.6378 9.21709 68.8068 9.55185C68.9759 9.88329 69.0604 10.3042 69.0604 10.8146V16H68.1754V14.7919H68.1207C68.0147 15.0173 67.8572 15.236 67.6484 15.4482C67.4396 15.6603 67.1778 15.8343 66.8629 15.9702C66.5481 16.1061 66.1785 16.174 65.7543 16.174ZM65.8736 15.3636C66.3442 15.3636 66.7519 15.2592 67.0966 15.0504C67.4413 14.8416 67.7064 14.5649 67.892 14.2202C68.081 13.8722 68.1754 13.4893 68.1754 13.0717V11.968C68.1091 12.031 67.9981 12.0874 67.8423 12.1371C67.6899 12.1868 67.5125 12.2315 67.3104 12.2713C67.1115 12.3078 66.9126 12.3393 66.7138 12.3658C66.5149 12.3923 66.3359 12.4155 66.1768 12.4354C65.746 12.4884 65.3781 12.5713 65.0732 12.6839C64.7682 12.7966 64.5346 12.9524 64.3722 13.1513C64.2098 13.3468 64.1286 13.5987 64.1286 13.907C64.1286 14.371 64.2943 14.7306 64.6257 14.9858C64.9571 15.2377 65.3731 15.3636 65.8736 15.3636ZM76.57 11.7692V12.6044H72.0806V11.7692H76.57ZM72.2994 8.36364V16H71.4144V8.36364H72.2994ZM77.2212 8.36364V16H76.3363V8.36364H77.2212ZM84.7321 11.7692V12.6044H80.2427V11.7692H84.7321ZM80.4615 8.36364V16H79.5765V8.36364H80.4615ZM85.3833 8.36364V16H84.4984V8.36364H85.3833ZM90.7067 16.1591C90.0471 16.1591 89.4638 15.9917 88.9567 15.657C88.4529 15.3222 88.0585 14.8598 87.7734 14.2699C87.4884 13.6766 87.3459 12.9922 87.3459 12.2166C87.3459 11.4344 87.4884 10.7467 87.7734 10.1534C88.0585 9.55682 88.4529 9.0928 88.9567 8.76136C89.4638 8.42661 90.0471 8.25923 90.7067 8.25923C91.3662 8.25923 91.9479 8.42661 92.4517 8.76136C92.9555 9.09612 93.3499 9.56013 93.6349 10.1534C93.9233 10.7467 94.0675 11.4344 94.0675 12.2166C94.0675 12.9922 93.925 13.6766 93.6399 14.2699C93.3549 14.8598 92.9588 15.3222 92.4517 15.657C91.9479 15.9917 91.3662 16.1591 90.7067 16.1591ZM90.7067 15.3487C91.237 15.3487 91.6861 15.2062 92.054 14.9212C92.4219 14.6361 92.7003 14.2566 92.8892 13.7827C93.0814 13.3087 93.1776 12.7867 93.1776 12.2166C93.1776 11.6465 93.0814 11.1229 92.8892 10.6456C92.7003 10.1683 92.4219 9.78551 92.054 9.49716C91.6861 9.20881 91.237 9.06463 90.7067 9.06463C90.1797 9.06463 89.7306 9.20881 89.3594 9.49716C88.9915 9.78551 88.7114 10.1683 88.5192 10.6456C88.3303 11.1229 88.2358 11.6465 88.2358 12.2166C88.2358 12.7867 88.3303 13.3087 88.5192 13.7827C88.7114 14.2566 88.9915 14.6361 89.3594 14.9212C89.7273 15.2062 90.1764 15.3487 90.7067 15.3487Z" fill="white"/>
<path d="M6.00112 42.7867H2V23H6.00112V33.16L10.4557 28.4133H15.4971L10.0289 34.2267L15.7105 42.7867H10.9625L7.30815 37.2933L6.00112 38.6533V42.7867Z" fill="white"/>
<path d="M25.4126 31.96C24.2212 31.96 23.332 32.3867 22.7452 33.24C22.1584 34.0756 21.8649 35.1867 21.8649 36.5733V42.7867H17.8638V28.44H21.8649V30.3333C22.3806 29.7467 23.0208 29.2489 23.7855 28.84C24.5679 28.4311 25.3593 28.2178 26.1595 28.2L26.1861 31.96H25.4126Z" fill="white"/>
<path d="M38.0864 36.1733V28.44H42.1142V42.7867H38.0864V40.8933C37.0905 42.2978 35.8013 43 34.2186 43C32.6537 43 31.3378 42.5111 30.2708 41.5333C29.2039 40.5378 28.6704 39.0711 28.6704 37.1333V28.44H32.6982V36.2533C32.6982 38.4578 33.5073 39.56 35.1255 39.56C35.9258 39.56 36.6193 39.2756 37.2061 38.7067C37.7929 38.12 38.0864 37.2756 38.0864 36.1733Z" fill="white"/>
<path d="M53.3613 42.7867H49.2268L44.3454 28.44H48.4799L51.2807 37.1067L54.0815 28.44H57.9492L60.75 37.1067L65.8388 23H70L62.8306 42.7867H58.6694L56.0287 34.9733L53.3613 42.7867Z" fill="white"/>
</svg>
