<svg width="6" height="8" viewBox="0 0 6 8" fill="none" xmlns="http://www.w3.org/2000/svg">
<path d="M1.16209 2.3788e-05C0.932136 -0.00139383 0.706956 0.059154 0.515425 0.173901C0.323896 0.288647 0.174748 0.452361 0.0871084 0.644049C-0.000530869 0.835737 -0.0226656 1.04666 0.0235423 1.24977C0.0697502 1.45287 0.182195 1.63891 0.346455 1.78401L2.83073 4.012L0.346455 6.24991C0.142578 6.44718 0.0315851 6.7081 0.0368609 6.9777C0.0421366 7.2473 0.163269 7.50453 0.374738 7.6952C0.586207 7.88587 0.871502 7.99508 1.17052 7.99984C1.46953 8.0046 1.75892 7.90452 1.97772 7.7207L5.93497 4.15274C5.95558 4.13431 5.97193 4.11239 5.98309 4.08823C5.99425 4.06408 6 4.03817 6 4.012C6 3.98583 5.99425 3.95992 5.98309 3.93577C5.97193 3.91161 5.95558 3.88969 5.93497 3.87126L1.97772 0.303301C1.76098 0.108995 1.46773 -4.25191e-05 1.16209 2.3788e-05Z" fill="white"/>
</svg>
