<svg width="25" height="25" viewBox="0 0 25 25" fill="none" xmlns="http://www.w3.org/2000/svg">
<path d="M11.9189 12.7871C15.451 12.7871 18.3144 9.92463 18.3144 6.39356C18.3144 2.8625 15.451 0 11.9189 0C8.38675 0 5.52338 2.8625 5.52338 6.39356C5.52338 9.92463 8.38675 12.7871 11.9189 12.7871Z" fill="white"/>
<path fill-rule="evenodd" clip-rule="evenodd" d="M11.6282 23.8445V21.4556C11.6282 20.9151 11.8421 20.3978 12.2247 20.0165L14.5387 17.7032C14.4817 16.4431 14.8352 15.1667 15.5945 14.0926C14.4399 13.8961 13.2038 13.7892 11.9189 13.7892C8.056 13.7892 4.63615 14.7552 2.51285 16.2025C0.893044 17.3068 0 18.7099 0 20.1827V21.8683C0 22.3926 0.208144 22.8959 0.579083 23.2656C0.950022 23.6364 1.45236 23.8445 1.97679 23.8445H11.6282Z" fill="white"/>
<path fill-rule="evenodd" clip-rule="evenodd" d="M19.6539 22.045C21.0633 22.2566 22.5528 21.8195 23.6378 20.7349C25.4541 18.9191 25.4541 15.9711 23.6378 14.1565C21.8226 12.3407 18.8737 12.3407 17.0574 14.1565C15.9725 15.2411 15.5352 16.7302 15.7469 18.1403L13.0468 20.8384C12.8829 21.0023 12.791 21.2243 12.791 21.4556V24.1282C12.791 24.6094 13.1817 25 13.6631 25H16.3364C16.5678 25 16.7899 24.9082 16.9539 24.7443L19.6539 22.045ZM19.4563 18.3367C18.9644 17.845 18.9644 17.0464 19.4563 16.5547C19.9481 16.063 20.747 16.063 21.2389 16.5547C21.7307 17.0464 21.7307 17.845 21.2389 18.3367C20.747 18.8285 19.9481 18.8285 19.4563 18.3367Z" fill="white"/>
</svg>
