<svg width="782" height="222" viewBox="0 0 782 222" fill="none" xmlns="http://www.w3.org/2000/svg">
<g clip-path="url(#clip0_1_88)" filter="url(#filter0_d_1_88)">
<path d="M200.188 137.256C200.188 139.547 200.722 141.493 201.752 143.02C202.781 144.547 204.116 145.768 205.717 146.646C207.319 147.524 209.149 148.135 211.17 148.478C213.191 148.822 215.212 149.013 217.233 149.013C221.618 149.165 225.241 148.517 228.101 147.142C230.961 145.73 232.41 143.364 232.41 140.005C232.41 137.066 231.418 134.966 229.473 133.669C227.529 132.371 224.707 131.569 221.008 131.187C219.597 131.035 218.263 130.92 216.928 130.768C215.593 130.615 214.106 130.462 212.428 130.233C209.645 129.89 206.899 129.394 204.154 128.783C201.447 128.172 199.006 127.18 196.871 125.844C194.735 124.508 193.057 122.752 191.799 120.5C190.541 118.248 189.969 115.385 190.007 111.912C190.007 109.66 190.503 107.484 191.532 105.308C192.562 103.133 193.973 101.339 195.879 99.8501C198.053 98.0943 200.569 96.7583 203.468 95.8041C206.366 94.8499 210.255 94.4682 215.136 94.5827C218.339 94.5827 221.504 94.888 224.593 95.4606C227.681 96.0713 230.503 97.1019 233.02 98.5905C235.536 100.079 237.634 102.102 239.311 104.659C240.989 107.217 242.019 110.461 242.438 114.469L229.778 115.003C229.626 111.11 228.368 108.324 226.003 106.721C223.639 105.118 220.36 104.201 216.165 104.011C214.755 103.934 213.306 104.011 211.78 104.125C210.255 104.278 208.806 104.583 207.509 105.118C206.175 105.652 205.069 106.377 204.154 107.37C203.239 108.362 202.743 109.66 202.705 111.339C202.629 112.79 202.896 114.011 203.429 115.003C204.001 115.996 204.764 116.759 205.794 117.37C206.823 117.981 208.043 118.439 209.454 118.782C210.865 119.126 212.428 119.393 214.106 119.622C215.632 119.851 217.119 120.042 218.491 120.195C219.902 120.385 221.428 120.576 223.105 120.767C226.042 121.034 228.825 121.569 231.533 122.294C234.202 123.019 236.566 124.088 238.587 125.5C240.608 126.912 242.209 128.706 243.392 130.958C244.574 133.21 245.184 135.921 245.184 139.127C245.184 142.753 244.383 145.807 242.781 148.288C241.18 150.769 239.083 152.792 236.452 154.318C233.82 155.845 230.884 156.952 227.605 157.563C224.326 158.174 221.008 158.517 217.653 158.517C214.297 158.517 210.713 158.25 207.281 157.677C203.849 157.105 200.722 156.074 197.9 154.586C195.078 153.097 192.676 150.998 190.731 148.364C188.787 145.692 187.567 142.219 187.071 137.905L200.15 137.295L200.188 137.256ZM308.025 144.394H278.397L272.753 158.021H258.835L286.9 95.1552H299.674L327.739 158.021H313.821L308.063 144.394H308.025ZM282.4 134.966H304.174L296.319 116.225L293.268 108.247L290.217 116.225L282.362 134.966H282.4ZM363.126 116.301L361.677 113.782V157.983H349.131V95.1552H363.774L394.318 136.837L396.186 139.89V95.1552H408.731V158.021H394.089L363.126 116.339V116.301ZM438.856 95.1552H451.401V148.593H491.172V158.021H438.856V95.1552ZM506.616 126.569C506.616 124.889 506.73 122.943 506.921 120.767C507.112 118.553 507.607 116.263 508.332 113.897C509.056 111.53 510.124 109.164 511.573 106.873C512.984 104.583 514.929 102.522 517.331 100.69C519.733 98.8577 522.707 97.4072 526.216 96.3003C529.724 95.1934 533.995 94.6208 539.028 94.6208C544.061 94.6208 548.256 95.1552 551.84 96.2621C555.425 97.3309 558.437 98.7813 560.877 100.537C563.318 102.331 565.263 104.354 566.75 106.606C568.199 108.858 569.343 111.187 570.143 113.515C570.944 115.843 571.478 118.172 571.707 120.5C571.936 122.79 572.088 124.813 572.088 126.569C572.088 128.325 571.974 130.195 571.783 132.371C571.593 134.585 571.097 136.875 570.334 139.241C569.572 141.608 568.504 143.936 567.093 146.265C565.682 148.555 563.775 150.616 561.335 152.448C558.895 154.28 555.882 155.731 552.336 156.838C548.79 157.945 544.481 158.517 539.447 158.517C534.414 158.517 530.105 157.945 526.521 156.838C522.936 155.731 519.924 154.242 517.483 152.448C515.043 150.654 513.098 148.555 511.687 146.265C510.277 143.974 509.171 141.608 508.408 139.241C507.645 136.875 507.15 134.585 506.959 132.371C506.768 130.157 506.654 128.248 506.654 126.569H506.616ZM539.066 104.049C535.367 104.049 532.279 104.621 529.762 105.766C527.245 106.912 525.224 108.515 523.623 110.538C522.059 112.561 520.915 114.965 520.229 117.714C519.543 120.462 519.161 123.439 519.161 126.569C519.161 129.699 519.504 132.523 520.229 135.272C520.915 137.982 522.059 140.386 523.661 142.448C525.262 144.509 527.36 146.15 529.953 147.333C532.546 148.517 535.71 149.127 539.486 149.127C543.261 149.127 546.311 148.517 548.904 147.333C551.497 146.15 553.556 144.547 555.12 142.524C556.683 140.501 557.827 138.096 558.513 135.348C559.2 132.6 559.543 129.661 559.543 126.607C559.543 123.554 559.2 120.5 558.513 117.752C557.827 115.004 556.683 112.599 555.12 110.576C553.556 108.553 551.459 106.95 548.79 105.805C546.12 104.659 542.879 104.087 539.066 104.087V104.049ZM653.919 137.867C653.5 140.157 652.661 142.524 651.402 144.929C650.144 147.333 648.314 149.547 645.912 151.532C643.509 153.517 640.459 155.196 636.798 156.494C633.137 157.83 628.714 158.479 623.566 158.479C618.533 158.555 614.224 158.021 610.601 156.914C606.979 155.807 603.928 154.357 601.45 152.563C598.971 150.769 596.988 148.746 595.539 146.417C594.09 144.127 592.946 141.761 592.146 139.394C591.345 137.027 590.811 134.737 590.582 132.523C590.353 130.31 590.201 128.401 590.201 126.722C590.201 125.042 590.315 123.095 590.582 120.92C590.811 118.706 591.307 116.416 592.031 114.049C592.756 111.683 593.862 109.354 595.349 107.026C596.798 104.736 598.742 102.636 601.145 100.804C603.547 98.9722 606.521 97.4836 610.106 96.3385C613.652 95.2316 617.961 94.6208 622.956 94.5445C628.409 94.5445 632.985 95.1934 636.722 96.5293C640.459 97.8653 643.509 99.5829 645.873 101.682C648.238 103.782 650.03 106.11 651.25 108.629C652.47 111.187 653.271 113.668 653.614 116.11L640.954 116.836C640.421 112.713 638.666 109.545 635.768 107.293C632.87 105.041 628.6 103.934 622.956 103.934C619.257 103.934 616.131 104.545 613.576 105.728C611.021 106.912 608.924 108.515 607.284 110.538C605.644 112.561 604.462 114.965 603.776 117.714C603.089 120.462 602.746 123.439 602.746 126.569C602.746 129.699 603.128 132.523 603.89 135.272C604.653 137.982 605.873 140.386 607.551 142.448C609.229 144.509 611.364 146.112 613.995 147.257C616.626 148.402 619.791 148.975 623.566 148.975C628.6 148.975 632.489 147.868 635.273 145.616C638.056 143.364 639.925 140.539 640.916 137.142L653.881 137.753L653.919 137.867ZM677.408 95.117H689.954V120.156H697.58L720.307 95.117H734.759L709.744 123.286L738 157.945H722.709L699.067 129.546H689.954V157.945H677.408V95.1552V95.117Z" fill="white"/>
<path d="M48.9572 95.3083V72.9408C48.9572 63.8946 52.656 55.6499 58.6045 49.6573C64.6294 43.7028 72.8277 40.0003 81.865 40.0003C90.9022 40.0003 99.1387 43.7028 105.125 49.6573C111.074 55.6117 114.773 63.8564 114.773 72.9408V95.3465L102.418 82.9795V72.979C102.418 67.3299 100.092 62.177 96.3932 58.4745C92.6563 54.7338 87.5466 52.4437 81.9031 52.4437C76.2596 52.4437 71.1118 54.7338 67.413 58.4745C63.6761 62.2151 61.3882 67.368 61.3882 73.0172V83.0177L49.0334 95.3847L48.9572 95.3083Z" fill="white"/>
<path d="M81.865 99.7744L63.7905 117.867C58.8333 122.829 56.3548 129.394 56.3548 135.959C56.3548 142.525 58.7952 149.013 63.7142 153.937L63.8286 154.052C68.7858 159.014 75.3444 161.495 81.9031 161.495C88.4618 161.495 95.0205 159.014 99.9776 154.052L100.092 153.937C104.973 148.975 107.451 142.448 107.451 135.959C107.451 129.47 104.973 122.829 100.016 117.867L81.9413 99.7744H81.865ZM55.0583 109.126L81.865 82.2926L108.672 109.126C116.031 116.493 119.73 126.226 119.73 135.959C119.73 145.693 116.031 155.426 108.672 162.793L106.841 164.625H106.689C99.5963 170.808 90.7116 173.9 81.8269 173.9C72.9421 173.9 64.0574 170.808 56.9649 164.625H56.8505L55.0202 162.793C47.6607 155.388 43.9619 145.693 43.9619 135.959C43.9619 126.226 47.6607 116.493 55.0202 109.126H55.0583Z" fill="white"/>
<path d="M197.467 53.2122H200.158C201.421 53.2122 202.542 53.4946 203.523 54.0595C204.503 54.6244 205.273 55.4108 205.832 56.4188C206.391 57.4267 206.671 58.5953 206.671 59.9244C206.671 61.2536 206.391 62.4249 205.832 63.4384C205.273 64.4519 204.503 65.2439 203.523 65.8143C202.542 66.3847 201.421 66.6699 200.158 66.6699H197.467C196.204 66.6699 195.082 66.3875 194.102 65.8226C193.122 65.2577 192.352 64.4713 191.793 63.4633C191.233 62.4554 190.954 61.2868 190.954 59.9577C190.954 58.6285 191.233 57.4572 191.793 56.4437C192.352 55.4302 193.122 54.6383 194.102 54.0678C195.082 53.4974 196.204 53.2122 197.467 53.2122ZM197.467 55.0398C196.503 55.0398 195.689 55.2419 195.024 55.6462C194.365 56.0505 193.864 56.6209 193.521 57.3575C193.183 58.0941 193.014 58.9608 193.014 59.9577C193.014 60.9435 193.183 61.8019 193.521 62.5329C193.864 63.264 194.365 63.8316 195.024 64.2359C195.689 64.6402 196.503 64.8424 197.467 64.8424H200.158C201.122 64.8424 201.933 64.6402 202.592 64.2359C203.257 63.8316 203.758 63.2612 204.096 62.5246C204.439 61.788 204.611 60.9213 204.611 59.9244C204.611 58.9387 204.439 58.0802 204.096 57.3492C203.758 56.6182 203.257 56.0505 202.592 55.6462C201.933 55.2419 201.122 55.0398 200.158 55.0398H197.467ZM199.859 50.8861V68.8963H197.799V50.8861H199.859ZM211.12 72.9835C210.787 72.9835 210.491 72.9558 210.231 72.9004C209.97 72.8506 209.79 72.8007 209.691 72.7509L210.189 71.023C210.665 71.1448 211.086 71.1891 211.452 71.1559C211.817 71.1226 212.141 70.9593 212.424 70.6657C212.712 70.3778 212.975 69.9098 213.213 69.2618L213.579 68.2649L208.86 55.4385H210.987L214.509 65.6066H214.642L218.164 55.4385H220.291L214.874 70.0593C214.631 70.7184 214.329 71.2639 213.969 71.6958C213.609 72.1334 213.191 72.4573 212.715 72.6678C212.244 72.8782 211.712 72.9835 211.12 72.9835ZM222.879 72.9835V55.4385H224.773V57.4655H225.005C225.149 57.244 225.349 56.9615 225.603 56.6182C225.864 56.2693 226.235 55.9591 226.717 55.6877C227.204 55.4108 227.863 55.2724 228.694 55.2724C229.768 55.2724 230.715 55.541 231.535 56.0782C232.354 56.6154 232.994 57.3769 233.454 58.3627C233.913 59.3485 234.143 60.5115 234.143 61.8517C234.143 63.2031 233.913 64.3744 233.454 65.3657C232.994 66.3515 232.357 67.1158 231.543 67.6585C230.729 68.1957 229.79 68.4643 228.727 68.4643C227.907 68.4643 227.251 68.3286 226.758 68.0573C226.265 67.7804 225.886 67.4674 225.62 67.1185C225.354 66.7641 225.149 66.4706 225.005 66.238H224.839V72.9835H222.879ZM224.806 61.8185C224.806 62.7821 224.947 63.6323 225.23 64.3688C225.512 65.0999 225.925 65.6731 226.467 66.0884C227.01 66.4983 227.675 66.7032 228.461 66.7032C229.281 66.7032 229.965 66.4872 230.513 66.0552C231.067 65.6177 231.482 65.0306 231.759 64.2941C232.041 63.552 232.183 62.7268 232.183 61.8185C232.183 60.9213 232.044 60.1127 231.767 59.3928C231.496 58.6673 231.083 58.0941 230.53 57.6732C229.981 57.2467 229.292 57.0335 228.461 57.0335C227.664 57.0335 226.993 57.2357 226.451 57.64C225.908 58.0387 225.498 58.5981 225.221 59.318C224.944 60.0324 224.806 60.8659 224.806 61.8185ZM245.674 60.9213V62.7489H238.629V60.9213H245.674ZM239.094 55.4385V68.1985H237.134V55.4385H239.094ZM247.169 55.4385V68.1985H245.208V55.4385H247.169ZM252.71 65.3076L258.857 55.4385H261.117V68.1985H259.156V58.3295L253.042 68.1985H250.749V55.4385H252.71V65.3076ZM262.971 57.2661V55.4385H273.339V57.2661H269.152V68.1985H267.192V57.2661H262.971ZM277.461 72.9835C277.129 72.9835 276.833 72.9558 276.573 72.9004C276.312 72.8506 276.132 72.8007 276.033 72.7509L276.531 71.023C277.007 71.1448 277.428 71.1891 277.794 71.1559C278.159 71.1226 278.483 70.9593 278.766 70.6657C279.054 70.3778 279.317 69.9098 279.555 69.2618L279.92 68.2649L275.202 55.4385H277.329L280.851 65.6066H280.984L284.506 55.4385H286.633L281.216 70.0593C280.973 70.7184 280.671 71.2639 280.311 71.6958C279.951 72.1334 279.533 72.4573 279.056 72.6678C278.586 72.8782 278.054 72.9835 277.461 72.9835ZM289.22 72.9835V55.4385H291.114V57.4655H291.347C291.491 57.244 291.69 56.9615 291.945 56.6182C292.205 56.2693 292.576 55.9591 293.058 55.6877C293.546 55.4108 294.205 55.2724 295.035 55.2724C296.11 55.2724 297.057 55.541 297.877 56.0782C298.696 56.6154 299.336 57.3769 299.796 58.3627C300.255 59.3485 300.485 60.5115 300.485 61.8517C300.485 63.2031 300.255 64.3744 299.796 65.3657C299.336 66.3515 298.699 67.1158 297.885 67.6585C297.071 68.1957 296.132 68.4643 295.069 68.4643C294.249 68.4643 293.593 68.3286 293.1 68.0573C292.607 67.7804 292.228 67.4674 291.962 67.1185C291.696 66.7641 291.491 66.4706 291.347 66.238H291.181V72.9835H289.22ZM291.148 61.8185C291.148 62.7821 291.289 63.6323 291.571 64.3688C291.854 65.0999 292.266 65.6731 292.809 66.0884C293.352 66.4983 294.016 66.7032 294.803 66.7032C295.622 66.7032 296.306 66.4872 296.855 66.0552C297.409 65.6177 297.824 65.0306 298.101 64.2941C298.383 63.552 298.525 62.7268 298.525 61.8185C298.525 60.9213 298.386 60.1127 298.109 59.3928C297.838 58.6673 297.425 58.0941 296.871 57.6732C296.323 57.2467 295.634 57.0335 294.803 57.0335C294.005 57.0335 293.335 57.2357 292.792 57.64C292.25 58.0387 291.84 58.5981 291.563 59.318C291.286 60.0324 291.148 60.8659 291.148 61.8185ZM307.231 68.4975C306.422 68.4975 305.688 68.3452 305.029 68.0406C304.37 67.7305 303.847 67.2847 303.459 66.7032C303.071 66.1161 302.878 65.4072 302.878 64.5765C302.878 63.8455 303.021 63.2529 303.309 62.7988C303.597 62.3391 303.982 61.9791 304.464 61.7188C304.946 61.4585 305.478 61.2647 306.059 61.1373C306.646 61.0044 307.236 60.8992 307.829 60.8216C308.604 60.7219 309.233 60.6472 309.714 60.5973C310.202 60.542 310.556 60.4506 310.778 60.3232C311.005 60.1958 311.118 59.9743 311.118 59.6586V59.5922C311.118 58.7725 310.894 58.1356 310.445 57.6815C310.002 57.2274 309.329 57.0003 308.427 57.0003C307.491 57.0003 306.757 57.2052 306.225 57.615C305.694 58.0249 305.32 58.4624 305.104 58.9276L303.243 58.263C303.575 57.4877 304.018 56.884 304.572 56.452C305.132 56.0145 305.741 55.7099 306.4 55.5382C307.064 55.361 307.718 55.2724 308.36 55.2724C308.77 55.2724 309.241 55.3222 309.773 55.4219C310.31 55.5161 310.828 55.7127 311.326 56.0117C311.83 56.3108 312.248 56.7622 312.58 57.3658C312.913 57.9695 313.079 58.778 313.079 59.7915V68.1985H311.118V66.4706H311.019C310.886 66.7475 310.664 67.0438 310.354 67.3595C310.044 67.6751 309.631 67.9437 309.116 68.1653C308.601 68.3868 307.973 68.4975 307.231 68.4975ZM307.53 66.7364C308.305 66.7364 308.958 66.5841 309.49 66.2795C310.027 65.9749 310.432 65.5817 310.703 65.0999C310.98 64.6181 311.118 64.1113 311.118 63.5796V61.7853C311.035 61.885 310.852 61.9763 310.57 62.0594C310.293 62.137 309.972 62.2062 309.606 62.2671C309.246 62.3225 308.895 62.3723 308.551 62.4166C308.214 62.4554 307.939 62.4886 307.729 62.5163C307.219 62.5828 306.743 62.6908 306.3 62.8403C305.863 62.9843 305.508 63.2031 305.237 63.4966C304.971 63.7846 304.838 64.1778 304.838 64.6762C304.838 65.3574 305.09 65.8725 305.594 66.2214C306.103 66.5647 306.749 66.7364 307.53 66.7364ZM325.197 65.3076L331.344 55.4385H333.604V68.1985H331.643V58.3295L325.529 68.1985H323.237V55.4385H325.197V65.3076ZM343.774 68.1985V55.4385H353.809V68.1985H351.849V57.2661H345.735V68.1985H343.774ZM357.39 72.9835V55.4385H359.284V57.4655H359.516C359.66 57.244 359.86 56.9615 360.115 56.6182C360.375 56.2693 360.746 55.9591 361.228 55.6877C361.715 55.4108 362.374 55.2724 363.205 55.2724C364.279 55.2724 365.226 55.541 366.046 56.0782C366.866 56.6154 367.505 57.3769 367.965 58.3627C368.425 59.3485 368.654 60.5115 368.654 61.8517C368.654 63.2031 368.425 64.3744 367.965 65.3657C367.505 66.3515 366.868 67.1158 366.054 67.6585C365.24 68.1957 364.301 68.4643 363.238 68.4643C362.418 68.4643 361.762 68.3286 361.269 68.0573C360.776 67.7804 360.397 67.4674 360.131 67.1185C359.865 66.7641 359.66 66.4706 359.516 66.238H359.35V72.9835H357.39ZM359.317 61.8185C359.317 62.7821 359.458 63.6323 359.741 64.3688C360.023 65.0999 360.436 65.6731 360.979 66.0884C361.521 66.4983 362.186 66.7032 362.972 66.7032C363.792 66.7032 364.476 66.4872 365.024 66.0552C365.578 65.6177 365.993 65.0306 366.27 64.2941C366.553 63.552 366.694 62.7268 366.694 61.8185C366.694 60.9213 366.555 60.1127 366.279 59.3928C366.007 58.6673 365.595 58.0941 365.041 57.6732C364.492 57.2467 363.803 57.0335 362.972 57.0335C362.175 57.0335 361.505 57.2357 360.962 57.64C360.419 58.0387 360.009 58.5981 359.732 59.318C359.456 60.0324 359.317 60.8659 359.317 61.8185ZM376.829 68.4643C375.677 68.4643 374.666 68.1902 373.797 67.6419C372.933 67.0936 372.257 66.3266 371.77 65.3408C371.288 64.355 371.047 63.2031 371.047 61.885C371.047 60.5558 371.288 59.3956 371.77 58.4042C372.257 57.4129 372.933 56.6431 373.797 56.0948C374.666 55.5465 375.677 55.2724 376.829 55.2724C377.981 55.2724 378.989 55.5465 379.853 56.0948C380.722 56.6431 381.398 57.4129 381.88 58.4042C382.367 59.3956 382.611 60.5558 382.611 61.885C382.611 63.2031 382.367 64.355 381.88 65.3408C381.398 66.3266 380.722 67.0936 379.853 67.6419C378.989 68.1902 377.981 68.4643 376.829 68.4643ZM376.829 66.7032C377.704 66.7032 378.424 66.4789 378.989 66.0303C379.554 65.5817 379.972 64.9919 380.243 64.2608C380.514 63.5298 380.65 62.7378 380.65 61.885C380.65 61.0321 380.514 60.2374 380.243 59.5008C379.972 58.7642 379.554 58.1688 378.989 57.7147C378.424 57.2606 377.704 57.0335 376.829 57.0335C375.954 57.0335 375.234 57.2606 374.669 57.7147C374.104 58.1688 373.686 58.7642 373.414 59.5008C373.143 60.2374 373.007 61.0321 373.007 61.885C373.007 62.7378 373.143 63.5298 373.414 64.2608C373.686 64.9919 374.104 65.5817 374.669 66.0303C375.234 66.4789 375.954 66.7032 376.829 66.7032ZM390.787 72.5515V51.1852H392.748V72.5515H390.787ZM390.787 68.4643C389.923 68.4643 389.137 68.3092 388.428 67.9991C387.719 67.6834 387.11 67.2376 386.6 66.6616C386.091 66.0801 385.697 65.3851 385.421 64.5765C385.144 63.7679 385.005 62.8708 385.005 61.885C385.005 60.8881 385.144 59.9854 385.421 59.1768C385.697 58.3627 386.091 57.6649 386.6 57.0834C387.11 56.5019 387.719 56.056 388.428 55.7459C389.137 55.4302 389.923 55.2724 390.787 55.2724H391.385V68.4643H390.787ZM390.787 66.7032H391.119V57.0335H390.787C390.134 57.0335 389.566 57.1664 389.084 57.4323C388.602 57.6926 388.204 58.0498 387.888 58.5039C387.578 58.9525 387.345 59.4676 387.19 60.0491C387.04 60.6306 386.966 61.2425 386.966 61.885C386.966 62.7378 387.101 63.5298 387.373 64.2608C387.644 64.9919 388.062 65.5817 388.627 66.0303C389.192 66.4789 389.912 66.7032 390.787 66.7032ZM392.748 68.4643H392.149V55.2724H392.748C393.612 55.2724 394.398 55.4302 395.107 55.7459C395.816 56.056 396.425 56.5019 396.934 57.0834C397.444 57.6649 397.837 58.3627 398.114 59.1768C398.391 59.9854 398.529 60.8881 398.529 61.885C398.529 62.8708 398.391 63.7679 398.114 64.5765C397.837 65.3851 397.444 66.0801 396.934 66.6616C396.425 67.2376 395.816 67.6834 395.107 67.9991C394.398 68.3092 393.612 68.4643 392.748 68.4643ZM392.748 66.7032C393.407 66.7032 393.974 66.5758 394.451 66.321C394.932 66.0608 395.328 65.7063 395.639 65.2577C395.954 64.8036 396.187 64.2885 396.336 63.7126C396.491 63.1311 396.569 62.5219 396.569 61.885C396.569 61.0321 396.433 60.2374 396.162 59.5008C395.89 58.7642 395.472 58.1688 394.907 57.7147C394.343 57.2606 393.623 57.0335 392.748 57.0335H392.415V66.7032H392.748ZM403.487 65.3076L409.634 55.4385H411.894V68.1985H409.933V58.3295L403.819 68.1985H401.526V55.4385H403.487V65.3076ZM414.355 68.1985V66.3709H414.82C415.202 66.3709 415.521 66.2961 415.775 66.1466C416.03 65.9915 416.235 65.7229 416.39 65.3408C416.551 64.9531 416.673 64.4159 416.756 63.7292C416.844 63.0369 416.908 62.1563 416.947 61.0875L417.179 55.4385H425.686V68.1985H423.725V57.2661H419.04L418.841 61.8185C418.796 62.8652 418.702 63.7873 418.558 64.5848C418.42 65.3768 418.207 66.0414 417.919 66.5786C417.636 67.1158 417.26 67.5201 416.789 67.7914C416.318 68.0628 415.728 68.1985 415.019 68.1985H414.355ZM430.978 60.0574H434.633C436.128 60.0574 437.272 60.4367 438.064 61.1955C438.856 61.9542 439.252 62.9151 439.252 64.0781C439.252 64.8424 439.074 65.5374 438.72 66.1632C438.366 66.7835 437.845 67.2791 437.158 67.6502C436.471 68.0157 435.63 68.1985 434.633 68.1985H429.283V55.4385H431.243V66.3709H434.633C435.408 66.3709 436.045 66.166 436.543 65.7562C437.042 65.3463 437.291 64.8202 437.291 64.1778C437.291 63.5021 437.042 62.9511 436.543 62.5246C436.045 62.0982 435.408 61.885 434.633 61.885H430.978V60.0574ZM447.453 71.8537V66.3709H448.516C448.777 66.0995 449.001 65.806 449.189 65.4903C449.378 65.1746 449.541 64.8008 449.679 64.3688C449.823 63.9313 449.945 63.3997 450.045 62.7738C450.145 62.1425 450.233 61.381 450.311 60.4893L450.743 55.4385H458.851V66.3709H460.811V71.8537H458.851V68.1985H449.414V71.8537H447.453ZM450.743 66.3709H456.89V57.2661H452.57L452.238 60.4893C452.1 61.824 451.928 62.9898 451.723 63.9867C451.518 64.9836 451.191 65.7783 450.743 66.3709ZM462.284 68.1985V66.3709H462.749C463.131 66.3709 463.449 66.2961 463.704 66.1466C463.959 65.9915 464.164 65.7229 464.319 65.3408C464.479 64.9531 464.601 64.4159 464.684 63.7292C464.773 63.0369 464.837 62.1563 464.875 61.0875L465.108 55.4385H473.615V68.1985H471.654V57.2661H466.969L466.769 61.8185C466.725 62.8652 466.631 63.7873 466.487 64.5848C466.349 65.3768 466.135 66.0414 465.847 66.5786C465.565 67.1158 465.188 67.5201 464.718 67.7914C464.247 68.0628 463.657 68.1985 462.948 68.1985H462.284ZM484.888 68.1985V57.2329H481.498C480.734 57.2329 480.133 57.4101 479.696 57.7646C479.258 58.119 479.039 58.6064 479.039 59.2266C479.039 59.8358 479.236 60.3149 479.629 60.6638C480.028 61.0127 480.573 61.1872 481.266 61.1872H485.386V63.0148H481.266C480.402 63.0148 479.657 62.8625 479.031 62.5579C478.405 62.2533 477.923 61.8185 477.586 61.2536C477.248 60.6832 477.079 60.0075 477.079 59.2266C477.079 58.4402 477.256 57.7646 477.61 57.1997C477.965 56.6348 478.472 56.2 479.131 55.8954C479.795 55.5908 480.584 55.4385 481.498 55.4385H486.748V68.1985H484.888ZM476.381 68.1985L480.003 61.8517H482.13L478.508 68.1985H476.381ZM496.196 57.2661V55.4385H506.563V57.2661H502.376V68.1985H500.416V57.2661H496.196ZM510.686 72.9835C510.354 72.9835 510.057 72.9558 509.797 72.9004C509.537 72.8506 509.357 72.8007 509.257 72.7509L509.755 71.023C510.232 71.1448 510.653 71.1891 511.018 71.1559C511.384 71.1226 511.708 70.9593 511.99 70.6657C512.278 70.3778 512.541 69.9098 512.779 69.2618L513.145 68.2649L508.426 55.4385H510.553L514.075 65.6066H514.208L517.73 55.4385H519.857L514.441 70.0593C514.197 70.7184 513.895 71.2639 513.535 71.6958C513.175 72.1334 512.757 72.4573 512.281 72.6678C511.81 72.8782 511.278 72.9835 510.686 72.9835ZM525.811 68.4975C525.003 68.4975 524.269 68.3452 523.61 68.0406C522.951 67.7305 522.427 67.2847 522.04 66.7032C521.652 66.1161 521.458 65.4072 521.458 64.5765C521.458 63.8455 521.602 63.2529 521.89 62.7988C522.178 62.3391 522.563 61.9791 523.045 61.7188C523.527 61.4585 524.058 61.2647 524.64 61.1373C525.227 61.0044 525.817 60.8992 526.409 60.8216C527.185 60.7219 527.813 60.6472 528.295 60.5973C528.783 60.542 529.137 60.4506 529.358 60.3232C529.586 60.1958 529.699 59.9743 529.699 59.6586V59.5922C529.699 58.7725 529.475 58.1356 529.026 57.6815C528.583 57.2274 527.91 57.0003 527.008 57.0003C526.072 57.0003 525.338 57.2052 524.806 57.615C524.274 58.0249 523.901 58.4624 523.685 58.9276L521.824 58.263C522.156 57.4877 522.599 56.884 523.153 56.452C523.712 56.0145 524.322 55.7099 524.981 55.5382C525.645 55.361 526.299 55.2724 526.941 55.2724C527.351 55.2724 527.822 55.3222 528.353 55.4219C528.891 55.5161 529.408 55.7127 529.907 56.0117C530.411 56.3108 530.829 56.7622 531.161 57.3658C531.493 57.9695 531.66 58.778 531.66 59.7915V68.1985H529.699V66.4706H529.599C529.466 66.7475 529.245 67.0438 528.935 67.3595C528.625 67.6751 528.212 67.9437 527.697 68.1653C527.182 68.3868 526.553 68.4975 525.811 68.4975ZM526.11 66.7364C526.886 66.7364 527.539 66.5841 528.071 66.2795C528.608 65.9749 529.012 65.5817 529.284 65.0999C529.561 64.6181 529.699 64.1113 529.699 63.5796V61.7853C529.616 61.885 529.433 61.9763 529.151 62.0594C528.874 62.137 528.553 62.2062 528.187 62.2671C527.827 62.3225 527.475 62.3723 527.132 62.4166C526.794 62.4554 526.52 62.4886 526.31 62.5163C525.8 62.5828 525.324 62.6908 524.881 62.8403C524.443 62.9843 524.089 63.2031 523.818 63.4966C523.552 63.7846 523.419 64.1778 523.419 64.6762C523.419 65.3574 523.671 65.8725 524.175 66.2214C524.684 66.5647 525.329 66.7364 526.11 66.7364ZM534.108 68.1985V66.3709H534.573C534.955 66.3709 535.274 66.2961 535.529 66.1466C535.783 65.9915 535.988 65.7229 536.143 65.3408C536.304 64.9531 536.426 64.4159 536.509 63.7292C536.598 63.0369 536.661 62.1563 536.7 61.0875L536.933 55.4385H545.439V68.1985H543.479V57.2661H538.793L538.594 61.8185C538.55 62.8652 538.456 63.7873 538.312 64.5848C538.173 65.3768 537.96 66.0414 537.672 66.5786C537.39 67.1158 537.013 67.5201 536.542 67.7914C536.071 68.0628 535.482 68.1985 534.773 68.1985H534.108ZM554.386 68.4643C553.157 68.4643 552.096 68.1929 551.205 67.6502C550.318 67.1019 549.634 66.3377 549.153 65.3574C548.676 64.3716 548.438 63.2252 548.438 61.9182C548.438 60.6112 548.676 59.4592 549.153 58.4624C549.634 57.46 550.305 56.6791 551.163 56.1197C552.027 55.5548 553.035 55.2724 554.187 55.2724C554.851 55.2724 555.508 55.3831 556.156 55.6047C556.804 55.8262 557.393 56.1862 557.925 56.6846C558.457 57.1775 558.88 57.831 559.196 58.6451C559.512 59.4592 559.67 60.4617 559.67 61.6524V62.4831H549.834V60.7884H557.676C557.676 60.0684 557.532 59.426 557.244 58.8611C556.961 58.2962 556.557 57.8504 556.031 57.5237C555.51 57.1969 554.896 57.0335 554.187 57.0335C553.406 57.0335 552.73 57.2274 552.16 57.615C551.595 57.9972 551.16 58.4956 550.856 59.1103C550.551 59.7251 550.399 60.3841 550.399 61.0875V62.2173C550.399 63.1809 550.565 63.9978 550.897 64.6679C551.235 65.3325 551.703 65.8392 552.301 66.1881C552.899 66.5315 553.594 66.7032 554.386 66.7032C554.901 66.7032 555.366 66.6312 555.782 66.4872C556.203 66.3377 556.565 66.1161 556.87 65.8226C557.175 65.5235 557.41 65.1525 557.576 64.7094L559.47 65.2411C559.271 65.8835 558.936 66.4484 558.465 66.9358C557.994 67.4176 557.413 67.7942 556.721 68.0656C556.028 68.3314 555.25 68.4643 554.386 68.4643ZM561.464 57.2661V55.4385H571.831V57.2661H567.645V68.1985H565.684V57.2661H561.464ZM583.231 60.9213V62.7489H576.187V60.9213H583.231ZM576.652 55.4385V68.1985H574.691V55.4385H576.652ZM584.726 55.4385V68.1985H582.766V55.4385H584.726ZM590.002 60.0574H593.657C595.152 60.0574 596.296 60.4367 597.088 61.1955C597.88 61.9542 598.276 62.9151 598.276 64.0781C598.276 64.8424 598.098 65.5374 597.744 66.1632C597.389 66.7835 596.869 67.2791 596.182 67.6502C595.495 68.0157 594.654 68.1985 593.657 68.1985H588.307V55.4385H590.267V66.3709H593.657C594.432 66.3709 595.069 66.166 595.567 65.7562C596.066 65.3463 596.315 64.8202 596.315 64.1778C596.315 63.5021 596.066 62.9511 595.567 62.5246C595.069 62.0982 594.432 61.885 593.657 61.885H590.002V60.0574ZM600.303 68.1985V55.4385H602.263V68.1985H600.303ZM607.314 55.4385L610.371 60.6555L613.428 55.4385H615.688L611.567 61.8185L615.688 68.1985H613.428L610.371 63.2474L607.314 68.1985H605.054L609.108 61.8185L605.054 55.4385H607.314ZM625.064 68.1985V55.4385H627.025V60.9878H628.321L632.906 55.4385H635.432L630.281 61.5859L635.498 68.1985H632.973L628.786 62.8154H627.025V68.1985H625.064ZM641.384 68.4975C640.575 68.4975 639.842 68.3452 639.183 68.0406C638.524 67.7305 638 67.2847 637.613 66.7032C637.225 66.1161 637.031 65.4072 637.031 64.5765C637.031 63.8455 637.175 63.2529 637.463 62.7988C637.751 62.3391 638.136 61.9791 638.618 61.7188C639.1 61.4585 639.631 61.2647 640.213 61.1373C640.8 61.0044 641.39 60.8992 641.982 60.8216C642.757 60.7219 643.386 60.6472 643.868 60.5973C644.355 60.542 644.71 60.4506 644.931 60.3232C645.158 60.1958 645.272 59.9743 645.272 59.6586V59.5922C645.272 58.7725 645.048 58.1356 644.599 57.6815C644.156 57.2274 643.483 57.0003 642.58 57.0003C641.644 57.0003 640.911 57.2052 640.379 57.615C639.847 58.0249 639.473 58.4624 639.257 58.9276L637.397 58.263C637.729 57.4877 638.172 56.884 638.726 56.452C639.285 56.0145 639.894 55.7099 640.553 55.5382C641.218 55.361 641.871 55.2724 642.514 55.2724C642.924 55.2724 643.394 55.3222 643.926 55.4219C644.463 55.5161 644.981 55.7127 645.48 56.0117C645.983 56.3108 646.402 56.7622 646.734 57.3658C647.066 57.9695 647.232 58.778 647.232 59.7915V68.1985H645.272V66.4706H645.172C645.039 66.7475 644.818 67.0438 644.508 67.3595C644.197 67.6751 643.785 67.9437 643.27 68.1653C642.755 68.3868 642.126 68.4975 641.384 68.4975ZM641.683 66.7364C642.458 66.7364 643.112 66.5841 643.644 66.2795C644.181 65.9749 644.585 65.5817 644.856 65.0999C645.133 64.6181 645.272 64.1113 645.272 63.5796V61.7853C645.189 61.885 645.006 61.9763 644.724 62.0594C644.447 62.137 644.125 62.2062 643.76 62.2671C643.4 62.3225 643.048 62.3723 642.705 62.4166C642.367 62.4554 642.093 62.4886 641.882 62.5163C641.373 62.5828 640.897 62.6908 640.454 62.8403C640.016 62.9843 639.662 63.2031 639.39 63.4966C639.124 63.7846 638.992 64.1778 638.992 64.6762C638.992 65.3574 639.244 65.8725 639.747 66.2214C640.257 66.5647 640.902 66.7364 641.683 66.7364ZM660.281 50.6535L661.278 51.8498C660.89 52.2264 660.442 52.4894 659.932 52.639C659.423 52.7885 658.847 52.8799 658.204 52.9131C657.562 52.9463 656.847 52.9796 656.061 53.0128C655.175 53.046 654.441 53.262 653.859 53.6608C653.278 54.0595 652.829 54.6355 652.514 55.3887C652.198 56.1419 651.996 57.0668 651.907 58.1633H652.073C652.505 57.3658 653.104 56.7788 653.868 56.4022C654.632 56.0256 655.452 55.8373 656.327 55.8373C657.324 55.8373 658.221 56.0699 659.018 56.5351C659.816 57.0003 660.447 57.6898 660.912 58.6036C661.378 59.5174 661.61 60.6444 661.61 61.9847C661.61 63.3194 661.372 64.4713 660.896 65.4405C660.425 66.4097 659.763 67.1573 658.91 67.6834C658.063 68.204 657.069 68.4643 655.928 68.4643C654.787 68.4643 653.787 68.1957 652.929 67.6585C652.071 67.1158 651.403 66.3127 650.927 65.2494C650.451 64.1805 650.213 62.8597 650.213 61.2868V59.9244C650.213 57.0834 650.694 54.929 651.658 53.4614C652.627 51.9938 654.084 51.235 656.028 51.1852C656.714 51.1631 657.326 51.1575 657.864 51.1686C658.401 51.1797 658.869 51.1547 659.267 51.0938C659.666 51.0329 660.004 50.8861 660.281 50.6535ZM655.928 66.7032C656.698 66.7032 657.36 66.5093 657.913 66.1217C658.473 65.734 658.902 65.1885 659.201 64.4851C659.5 63.7763 659.65 62.9428 659.65 61.9847C659.65 61.0542 659.497 60.2623 659.193 59.6088C658.894 58.9553 658.464 58.4568 657.905 58.1135C657.346 57.7701 656.676 57.5984 655.895 57.5984C655.324 57.5984 654.812 57.6953 654.358 57.8892C653.904 58.083 653.516 58.3682 653.195 58.7448C652.874 59.1214 652.624 59.5811 652.447 60.1238C652.276 60.6666 652.184 61.2868 652.173 61.9847C652.173 63.4135 652.508 64.5571 653.178 65.4156C653.848 66.274 654.765 66.7032 655.928 66.7032ZM666.57 65.3076L672.717 55.4385H674.977V68.1985H673.016V58.3295L666.902 68.1985H664.609V55.4385H666.57V65.3076ZM687.107 60.9213V62.7489H680.063V60.9213H687.107ZM680.528 55.4385V68.1985H678.567V55.4385H680.528ZM688.603 55.4385V68.1985H686.642V55.4385H688.603Z" fill="white"/>
</g>
<defs>
<filter id="filter0_d_1_88" x="0" y="0" width="782" height="221.861" filterUnits="userSpaceOnUse" color-interpolation-filters="sRGB">
<feFlood flood-opacity="0" result="BackgroundImageFix"/>
<feColorMatrix in="SourceAlpha" type="matrix" values="0 0 0 0 0 0 0 0 0 0 0 0 0 0 0 0 0 0 127 0" result="hardAlpha"/>
<feOffset dy="4"/>
<feGaussianBlur stdDeviation="22"/>
<feComposite in2="hardAlpha" operator="out"/>
<feColorMatrix type="matrix" values="0 0 0 0 0 0 0 0 0 0 0 0 0 0 0 0 0 0 0.05 0"/>
<feBlend mode="normal" in2="BackgroundImageFix" result="effect1_dropShadow_1_88"/>
<feBlend mode="normal" in="SourceGraphic" in2="effect1_dropShadow_1_88" result="shape"/>
</filter>
<clipPath id="clip0_1_88">
<rect width="694" height="133.861" fill="white" transform="translate(44 40)"/>
</clipPath>
</defs>
</svg>
