<svg width="76" height="134" viewBox="0 0 76 134" fill="none" xmlns="http://www.w3.org/2000/svg">
<g id="Vector">
<path d="M4.95718 55.3083V32.9408C4.95718 23.8946 8.65597 15.6499 14.6045 9.65726C20.6294 3.70277 28.8277 0.000305176 37.865 0.000305176C46.9022 0.000305176 55.1387 3.70277 61.1254 9.65726C67.074 15.6117 70.7728 23.8564 70.7728 32.9408V55.3465L58.4181 42.9795V32.979C58.4181 27.3299 56.092 22.177 52.3932 18.4745C48.6563 14.7338 43.5466 12.4437 37.9031 12.4437C32.2596 12.4437 27.1118 14.7338 23.413 18.4745C19.6761 22.2151 17.3882 27.368 17.3882 33.0172V43.0177L5.03344 55.3847L4.95718 55.3083Z" fill="white"/>
<path d="M37.865 59.7744L19.7905 77.8669C14.8333 82.8289 12.3548 89.3941 12.3548 95.9593C12.3548 102.525 14.7952 109.013 19.7142 113.937L19.8286 114.052C24.7858 119.014 31.3444 121.495 37.9031 121.495C44.4618 121.495 51.0205 119.014 55.9776 114.052L56.092 113.937C60.9729 108.975 63.4515 102.448 63.4515 95.9593C63.4515 89.4705 60.9729 82.8289 56.0158 77.8669L37.9413 59.7744H37.865ZM11.0583 69.126L37.865 42.2926L64.6717 69.126C72.0311 76.4928 75.7299 86.2261 75.7299 95.9593C75.7299 105.693 72.0311 115.426 64.6717 122.793L62.8414 124.625H62.6888C55.5963 130.808 46.7116 133.9 37.8269 133.9C28.9421 133.9 20.0574 130.808 12.9649 124.625H12.8505L11.0202 122.793C3.66071 115.388 -0.0380859 105.693 -0.0380859 95.9593C-0.0380859 86.2261 3.66071 76.4928 11.0202 69.126H11.0583Z" fill="white"/>
</g>
</svg>
