<svg width="275" height="79" viewBox="0 0 275 79" fill="none" xmlns="http://www.w3.org/2000/svg">
<g clip-path="url(#clip0_1_389)" filter="url(#filter0_d_1_389)">
<path d="M70.6884 48.6184C70.6884 49.4203 70.8753 50.1019 71.2358 50.6365C71.5963 51.1711 72.0636 51.5988 72.6244 51.9062C73.1852 52.2136 73.8261 52.4274 74.5337 52.5477C75.2413 52.668 75.949 52.7348 76.6566 52.7348C78.1921 52.7883 79.4605 52.5611 80.4618 52.08C81.4632 51.5854 81.9706 50.7568 81.9706 49.5807C81.9706 48.5516 81.6234 47.8165 80.9425 47.3621C80.2616 46.9077 79.2735 46.6271 77.9784 46.4934C77.4844 46.44 77.0171 46.3999 76.5498 46.3464C76.0825 46.2929 75.5618 46.2395 74.9743 46.1593C73.9996 46.039 73.0383 45.8653 72.077 45.6514C71.129 45.4376 70.2745 45.0901 69.5268 44.6223C68.7791 44.1546 68.1917 43.5398 67.7511 42.7512C67.3105 41.9627 67.1102 40.9603 67.1235 39.7441C67.1235 38.9556 67.2971 38.1938 67.6576 37.432C68.0181 36.6702 68.5121 36.042 69.1797 35.5208C69.9407 34.906 70.8219 34.4383 71.8367 34.1041C72.8514 33.77 74.2133 33.6364 75.9223 33.6765C77.0438 33.6765 78.152 33.7834 79.2335 33.9838C80.315 34.1977 81.303 34.5585 82.1842 35.0798C83.0654 35.601 83.7997 36.3093 84.3872 37.2048C84.9747 38.1002 85.3352 39.2363 85.4821 40.6396L81.0493 40.8267C80.9959 39.4635 80.5553 38.4878 79.7275 37.9265C78.8997 37.3652 77.7514 37.0444 76.2828 36.9776C75.7888 36.9509 75.2814 36.9776 74.7473 37.0177C74.2133 37.0711 73.7059 37.1781 73.2519 37.3652C72.7846 37.5523 72.3974 37.8062 72.077 38.1537C71.7566 38.5012 71.583 38.9556 71.5696 39.5437C71.5429 40.0515 71.6364 40.4792 71.8233 40.8267C72.0236 41.1742 72.2906 41.4415 72.6511 41.6553C73.0116 41.8692 73.4389 42.0295 73.9329 42.1498C74.4269 42.2701 74.9743 42.3637 75.5618 42.4438C76.0958 42.524 76.6166 42.5909 77.0972 42.6443C77.5912 42.7111 78.1253 42.778 78.7128 42.8448C79.7408 42.9383 80.7155 43.1255 81.6635 43.3794C82.5981 43.6333 83.4259 44.0075 84.1335 44.502C84.8412 44.9965 85.4019 45.6247 85.8158 46.4132C86.2297 47.2018 86.4434 48.1507 86.4434 49.2733C86.4434 50.543 86.163 51.6122 85.6022 52.4809C85.0414 53.3496 84.3071 54.058 83.3858 54.5926C82.4646 55.1272 81.4365 55.5147 80.2883 55.7286C79.14 55.9424 77.9784 56.0627 76.8035 56.0627C75.6285 56.0627 74.3735 55.9691 73.1718 55.7687C71.9702 55.5682 70.8753 55.2073 69.8873 54.6861C68.8993 54.1649 68.0581 53.4298 67.3772 52.5076C66.6963 51.5721 66.269 50.3559 66.0955 48.8456L70.6751 48.6318L70.6884 48.6184ZM108.447 51.1177H98.0727L96.0966 55.889H91.2233L101.05 33.8769H105.523L115.35 55.889H110.476L108.46 51.1177H108.447ZM99.4746 47.8165H107.098L104.348 41.2544L103.28 38.4611L102.212 41.2544L99.4612 47.8165H99.4746ZM127.74 41.2811L127.233 40.399V55.8756H122.84V33.8769H127.967L138.662 48.4714L139.316 49.5406V33.8769H143.709V55.889H138.582L127.74 41.2945V41.2811ZM154.256 33.8769H158.649V52.5878H172.575V55.889H154.256V33.8769ZM177.982 44.8763C177.982 44.2882 178.022 43.6066 178.089 42.8448C178.156 42.0696 178.329 41.2677 178.583 40.4391C178.837 39.6105 179.211 38.7819 179.718 37.98C180.212 37.1781 180.893 36.4564 181.734 35.8148C182.575 35.1733 183.617 34.6655 184.845 34.2779C186.073 33.8903 187.569 33.6898 189.331 33.6898C191.094 33.6898 192.562 33.8769 193.817 34.2645C195.072 34.6387 196.127 35.1466 196.982 35.7614C197.836 36.3895 198.517 37.0979 199.038 37.8864C199.545 38.6749 199.946 39.4902 200.226 40.3055C200.506 41.1207 200.693 41.936 200.774 42.7512C200.854 43.5531 200.907 44.2615 200.907 44.8763C200.907 45.491 200.867 46.1459 200.8 46.9077C200.733 47.6829 200.56 48.4848 200.293 49.3134C200.026 50.142 199.652 50.9573 199.158 51.7726C198.664 52.5745 197.996 53.2962 197.142 53.9377C196.287 54.5792 195.233 55.0871 193.991 55.4746C192.749 55.8622 191.24 56.0627 189.478 56.0627C187.716 56.0627 186.207 55.8622 184.952 55.4746C183.697 55.0871 182.642 54.5658 181.787 53.9377C180.933 53.3095 180.252 52.5745 179.758 51.7726C179.264 50.9707 178.877 50.142 178.61 49.3134C178.343 48.4848 178.169 47.6829 178.102 46.9077C178.036 46.1326 177.996 45.4643 177.996 44.8763H177.982ZM189.345 36.991C188.049 36.991 186.968 37.1914 186.087 37.5924C185.206 37.9933 184.498 38.5546 183.937 39.263C183.39 39.9713 182.989 40.8133 182.749 41.7756C182.508 42.7379 182.375 43.7803 182.375 44.8763C182.375 45.9722 182.495 46.9612 182.749 47.9235C182.989 48.8724 183.39 49.7144 183.95 50.4361C184.511 51.1578 185.246 51.7325 186.153 52.1468C187.061 52.5611 188.17 52.7749 189.491 52.7749C190.813 52.7749 191.881 52.5611 192.789 52.1468C193.697 51.7325 194.418 51.1711 194.966 50.4628C195.513 49.7545 195.914 48.9125 196.154 47.9502C196.394 46.9879 196.514 45.9588 196.514 44.8896C196.514 43.8204 196.394 42.7512 196.154 41.789C195.914 40.8267 195.513 39.9847 194.966 39.2764C194.418 38.568 193.684 38.0067 192.749 37.6057C191.815 37.2048 190.68 37.0043 189.345 37.0043V36.991ZM229.56 48.8323C229.413 49.6342 229.119 50.4628 228.678 51.3048C228.238 52.1468 227.597 52.9219 226.756 53.6169C225.915 54.3119 224.847 54.9 223.565 55.3544C222.283 55.8221 220.734 56.0493 218.932 56.0493C217.169 56.0761 215.661 55.889 214.392 55.5014C213.124 55.1138 212.056 54.6059 211.188 53.9778C210.32 53.3496 209.626 52.6413 209.118 51.826C208.611 51.0241 208.21 50.1955 207.93 49.3669C207.65 48.5382 207.463 47.7364 207.383 46.9612C207.302 46.186 207.249 45.5178 207.249 44.9297C207.249 44.3417 207.289 43.6601 207.383 42.8982C207.463 42.1231 207.636 41.3212 207.89 40.4926C208.144 39.6639 208.531 38.8487 209.052 38.0334C209.559 37.2315 210.24 36.4965 211.081 35.8549C211.922 35.2134 212.964 34.6922 214.219 34.2912C215.46 33.9037 216.969 33.6898 218.718 33.6631C220.627 33.6631 222.23 33.8903 223.538 34.3581C224.847 34.8258 225.915 35.4273 226.742 36.1623C227.57 36.8974 228.198 37.7127 228.625 38.5947C229.052 39.4902 229.333 40.3589 229.453 41.2143L225.02 41.4682C224.833 40.0248 224.219 38.9155 223.204 38.127C222.19 37.3384 220.694 36.9509 218.718 36.9509C217.423 36.9509 216.328 37.1647 215.434 37.579C214.539 37.9933 213.805 38.5546 213.231 39.263C212.656 39.9713 212.243 40.8133 212.002 41.7756C211.762 42.7379 211.642 43.7803 211.642 44.8763C211.642 45.9722 211.775 46.9612 212.042 47.9235C212.309 48.8724 212.737 49.7144 213.324 50.4361C213.912 51.1578 214.659 51.7191 215.58 52.12C216.502 52.521 217.61 52.7215 218.932 52.7215C220.694 52.7215 222.056 52.3339 223.031 51.5454C224.005 50.7568 224.66 49.7678 225.007 48.5783L229.546 48.7922L229.56 48.8323ZM237.784 33.8636H242.177V42.6309H244.847L252.805 33.8636H257.865L249.106 43.7269L259 55.8622H253.646L245.368 45.9187H242.177V55.8622H237.784V33.8769V33.8636Z" fill="white"/>
<path d="M17.7359 33.9305V26.0986C17.7359 22.9311 19.031 20.0443 21.1138 17.946C23.2234 15.8611 26.094 14.5647 29.2584 14.5647C32.4227 14.5647 35.3066 15.8611 37.4029 17.946C39.4857 20.031 40.7808 22.9178 40.7808 26.0986V33.9438L36.4549 29.6136V26.112C36.4549 24.134 35.6404 22.3297 34.3453 21.0333C33.0369 19.7236 31.2477 18.9217 29.2717 18.9217C27.2957 18.9217 25.4932 19.7236 24.1981 21.0333C22.8896 22.3431 22.0885 24.1473 22.0885 26.1254V29.627L17.7626 33.9572L17.7359 33.9305Z" fill="white"/>
<path d="M29.2584 35.4942L22.9297 41.8292C21.194 43.5667 20.3261 45.8654 20.3261 48.1642C20.3261 50.463 21.1806 52.735 22.903 54.4591L22.943 54.4992C24.6787 56.2366 26.9752 57.1053 29.2717 57.1053C31.5682 57.1053 33.8647 56.2366 35.6004 54.4992L35.6404 54.4591C37.3495 52.7216 38.2173 50.4362 38.2173 48.1642C38.2173 45.8922 37.3495 43.5667 35.6137 41.8292L29.2851 35.4942H29.2584ZM19.8721 38.7686L29.2584 29.3731L38.6446 38.7686C41.2214 41.3481 42.5165 44.7561 42.5165 48.1642C42.5165 51.5722 41.2214 54.9803 38.6446 57.5597L38.0037 58.2012H37.9503C35.4669 60.3664 32.3559 61.4489 29.245 61.4489C26.1341 61.4489 23.0231 60.3664 20.5397 58.2012H20.4997L19.8588 57.5597C17.2819 54.9669 15.9868 51.5722 15.9868 48.1642C15.9868 44.7561 17.2819 41.3481 19.8588 38.7686H19.8721Z" fill="white"/>
<path d="M69.7354 19.1375H70.6779C71.12 19.1375 71.5127 19.2364 71.8559 19.4342C72.1991 19.632 72.4687 19.9074 72.6645 20.2603C72.8604 20.6132 72.9583 21.0224 72.9583 21.4878C72.9583 21.9532 72.8604 22.3633 72.6645 22.7182C72.4687 23.073 72.1991 23.3503 71.8559 23.5501C71.5127 23.7498 71.12 23.8497 70.6779 23.8497H69.7354C69.2933 23.8497 68.9006 23.7508 68.5574 23.553C68.2142 23.3552 67.9446 23.0798 67.7488 22.7269C67.5529 22.374 67.455 21.9648 67.455 21.4994C67.455 21.034 67.5529 20.6239 67.7488 20.269C67.9446 19.9142 68.2142 19.6369 68.5574 19.4371C68.9006 19.2374 69.2933 19.1375 69.7354 19.1375ZM69.7354 19.7774C69.398 19.7774 69.113 19.8482 68.8803 19.9898C68.6495 20.1313 68.474 20.3311 68.3538 20.589C68.2355 20.8469 68.1763 21.1504 68.1763 21.4994C68.1763 21.8446 68.2355 22.1452 68.3538 22.4011C68.474 22.6571 68.6495 22.8559 68.8803 22.9974C69.113 23.139 69.398 23.2098 69.7354 23.2098H70.6779C71.0153 23.2098 71.2994 23.139 71.5301 22.9974C71.7628 22.8559 71.9383 22.6561 72.0566 22.3982C72.1768 22.1403 72.2369 21.8368 72.2369 21.4878C72.2369 21.1426 72.1768 20.842 72.0566 20.5861C71.9383 20.3301 71.7628 20.1313 71.5301 19.9898C71.2994 19.8482 71.0153 19.7774 70.6779 19.7774H69.7354ZM70.5731 18.3231V24.6292H69.8518V18.3231H70.5731ZM74.5159 26.0603C74.3996 26.0603 74.2958 26.0506 74.2047 26.0312C74.1136 26.0138 74.0505 25.9963 74.0156 25.9789L74.1902 25.3739C74.3569 25.4165 74.5043 25.432 74.6323 25.4204C74.7603 25.4088 74.8737 25.3516 74.9726 25.2488C75.0735 25.1479 75.1656 24.9841 75.2489 24.7572L75.3769 24.4082L73.7248 19.9171H74.4694L75.7027 23.4774H75.7492L76.9826 19.9171H77.7272L75.8307 25.0364C75.7454 25.2672 75.6397 25.4582 75.5136 25.6095C75.3876 25.7627 75.2412 25.8761 75.0744 25.9498C74.9096 26.0235 74.7234 26.0603 74.5159 26.0603ZM78.6333 26.0603V19.9171H79.2965V20.6268H79.3779C79.4283 20.5492 79.4981 20.4503 79.5873 20.3301C79.6785 20.2079 79.8084 20.0993 79.9771 20.0043C80.1477 19.9074 80.3785 19.8589 80.6694 19.8589C81.0456 19.8589 81.3772 19.9529 81.6642 20.141C81.9512 20.3291 82.1751 20.5958 82.3361 20.9409C82.497 21.2861 82.5775 21.6933 82.5775 22.1626C82.5775 22.6358 82.497 23.0459 82.3361 23.393C82.1751 23.7382 81.9521 24.0058 81.6671 24.1958C81.382 24.3839 81.0533 24.478 80.681 24.478C80.394 24.478 80.1642 24.4305 79.9916 24.3354C79.8191 24.2385 79.6862 24.1289 79.5931 24.0068C79.5001 23.8826 79.4283 23.7799 79.3779 23.6984H79.3197V26.0603H78.6333ZM79.3081 22.151C79.3081 22.4884 79.3575 22.7861 79.4564 23.044C79.5553 23.2999 79.6998 23.5006 79.8898 23.6461C80.0799 23.7896 80.3126 23.8613 80.5879 23.8613C80.8749 23.8613 81.1144 23.7857 81.3064 23.6344C81.5003 23.4812 81.6457 23.2757 81.7427 23.0178C81.8416 22.7579 81.8911 22.469 81.8911 22.151C81.8911 21.8368 81.8426 21.5537 81.7456 21.3016C81.6506 21.0476 81.5061 20.8469 81.3122 20.6995C81.1202 20.5502 80.8788 20.4755 80.5879 20.4755C80.3087 20.4755 80.0741 20.5463 79.884 20.6879C79.694 20.8275 79.5505 21.0234 79.4535 21.2754C79.3566 21.5256 79.3081 21.8174 79.3081 22.151ZM86.6148 21.8368V22.4768H84.1482V21.8368H86.6148ZM84.3111 19.9171V24.3849H83.6247V19.9171H84.3111ZM87.1384 19.9171V24.3849H86.452V19.9171H87.1384ZM89.0785 23.3726L91.231 19.9171H92.0222V24.3849H91.3357V20.9293L89.1949 24.3849H88.3921V19.9171H89.0785V23.3726ZM92.6716 20.557V19.9171H96.3017V20.557H94.8357V24.3849H94.1492V20.557H92.6716ZM97.7451 26.0603C97.6288 26.0603 97.525 26.0506 97.4339 26.0312C97.3428 26.0138 97.2797 25.9963 97.2448 25.9789L97.4194 25.3739C97.5861 25.4165 97.7335 25.432 97.8615 25.4204C97.9895 25.4088 98.1029 25.3516 98.2018 25.2488C98.3026 25.1479 98.3948 24.9841 98.4781 24.7572L98.6061 24.4082L96.954 19.9171H97.6986L98.9319 23.4774H98.9784L100.212 19.9171H100.956L99.0599 25.0364C98.9746 25.2672 98.8689 25.4582 98.7428 25.6095C98.6168 25.7627 98.4704 25.8761 98.3036 25.9498C98.1388 26.0235 97.9526 26.0603 97.7451 26.0603ZM101.862 26.0603V19.9171H102.526V20.6268H102.607C102.658 20.5492 102.727 20.4503 102.817 20.3301C102.908 20.2079 103.038 20.0993 103.206 20.0043C103.377 19.9074 103.608 19.8589 103.899 19.8589C104.275 19.8589 104.606 19.9529 104.893 20.141C105.18 20.3291 105.404 20.5958 105.565 20.9409C105.726 21.2861 105.807 21.6933 105.807 22.1626C105.807 22.6358 105.726 23.0459 105.565 23.393C105.404 23.7382 105.181 24.0058 104.896 24.1958C104.611 24.3839 104.283 24.478 103.91 24.478C103.623 24.478 103.393 24.4305 103.221 24.3354C103.048 24.2385 102.915 24.1289 102.822 24.0068C102.729 23.8826 102.658 23.7799 102.607 23.6984H102.549V26.0603H101.862ZM102.537 22.151C102.537 22.4884 102.587 22.7861 102.686 23.044C102.785 23.2999 102.929 23.5006 103.119 23.6461C103.309 23.7896 103.542 23.8613 103.817 23.8613C104.104 23.8613 104.344 23.7857 104.536 23.6344C104.73 23.4812 104.875 23.2757 104.972 23.0178C105.071 22.7579 105.12 22.469 105.12 22.151C105.12 21.8368 105.072 21.5537 104.975 21.3016C104.88 21.0476 104.735 20.8469 104.541 20.6995C104.349 20.5502 104.108 20.4755 103.817 20.4755C103.538 20.4755 103.303 20.5463 103.113 20.6879C102.923 20.8275 102.78 21.0234 102.683 21.2754C102.586 21.5256 102.537 21.8174 102.537 22.151ZM108.169 24.4896C107.885 24.4896 107.629 24.4363 107.398 24.3296C107.167 24.221 106.984 24.0649 106.848 23.8613C106.712 23.6558 106.644 23.4076 106.644 23.1167C106.644 22.8607 106.695 22.6532 106.796 22.4942C106.897 22.3333 107.031 22.2072 107.2 22.1161C107.369 22.0249 107.555 21.9571 107.758 21.9125C107.964 21.8659 108.171 21.8291 108.378 21.8019C108.65 21.767 108.87 21.7408 109.038 21.7234C109.209 21.704 109.333 21.672 109.411 21.6274C109.49 21.5828 109.53 21.5052 109.53 21.3947V21.3714C109.53 21.0844 109.451 20.8614 109.294 20.7024C109.139 20.5434 108.904 20.4639 108.587 20.4639C108.26 20.4639 108.003 20.5357 107.817 20.6792C107.63 20.8227 107.5 20.9758 107.424 21.1387L106.772 20.906C106.889 20.6346 107.044 20.4232 107.238 20.2719C107.434 20.1187 107.647 20.0121 107.878 19.952C108.11 19.8899 108.339 19.8589 108.564 19.8589C108.708 19.8589 108.873 19.8763 109.059 19.9112C109.247 19.9442 109.428 20.0131 109.603 20.1178C109.779 20.2225 109.925 20.3805 110.042 20.5919C110.158 20.8033 110.216 21.0864 110.216 21.4412V24.3849H109.53V23.7799H109.495C109.448 23.8768 109.371 23.9806 109.262 24.0911C109.154 24.2016 109.009 24.2957 108.829 24.3733C108.649 24.4508 108.428 24.4896 108.169 24.4896ZM108.273 23.8729C108.545 23.8729 108.774 23.8196 108.96 23.713C109.148 23.6063 109.289 23.4686 109.384 23.2999C109.481 23.1312 109.53 22.9538 109.53 22.7676V22.1393C109.501 22.1742 109.437 22.2062 109.338 22.2353C109.241 22.2625 109.128 22.2867 109.001 22.308C108.874 22.3274 108.751 22.3449 108.631 22.3604C108.513 22.374 108.417 22.3856 108.343 22.3953C108.165 22.4186 107.998 22.4564 107.843 22.5088C107.69 22.5592 107.566 22.6358 107.471 22.7385C107.377 22.8394 107.331 22.9771 107.331 23.1516C107.331 23.3901 107.419 23.5704 107.596 23.6926C107.774 23.8128 108 23.8729 108.273 23.8729ZM114.459 23.3726L116.612 19.9171H117.403V24.3849H116.717V20.9293L114.576 24.3849H113.773V19.9171H114.459V23.3726ZM120.964 24.3849V19.9171H124.478V24.3849H123.791V20.557H121.651V24.3849H120.964ZM125.732 26.0603V19.9171H126.395V20.6268H126.476C126.527 20.5492 126.596 20.4503 126.686 20.3301C126.777 20.2079 126.907 20.0993 127.075 20.0043C127.246 19.9074 127.477 19.8589 127.768 19.8589C128.144 19.8589 128.475 19.9529 128.762 20.141C129.049 20.3291 129.273 20.5958 129.434 20.9409C129.595 21.2861 129.676 21.6933 129.676 22.1626C129.676 22.6358 129.595 23.0459 129.434 23.393C129.273 23.7382 129.05 24.0058 128.765 24.1958C128.48 24.3839 128.152 24.478 127.779 24.478C127.492 24.478 127.263 24.4305 127.09 24.3354C126.917 24.2385 126.785 24.1289 126.691 24.0068C126.598 23.8826 126.527 23.7799 126.476 23.6984H126.418V26.0603H125.732ZM126.406 22.151C126.406 22.4884 126.456 22.7861 126.555 23.044C126.654 23.2999 126.798 23.5006 126.988 23.6461C127.178 23.7896 127.411 23.8613 127.686 23.8613C127.973 23.8613 128.213 23.7857 128.405 23.6344C128.599 23.4812 128.744 23.2757 128.841 23.0178C128.94 22.7579 128.989 22.469 128.989 22.151C128.989 21.8368 128.941 21.5537 128.844 21.3016C128.749 21.0476 128.604 20.8469 128.411 20.6995C128.219 20.5502 127.977 20.4755 127.686 20.4755C127.407 20.4755 127.172 20.5463 126.982 20.6879C126.792 20.8275 126.649 21.0234 126.552 21.2754C126.455 21.5256 126.406 21.8174 126.406 22.151ZM132.538 24.478C132.135 24.478 131.781 24.382 131.476 24.19C131.174 23.998 130.937 23.7295 130.767 23.3843C130.598 23.0391 130.514 22.6358 130.514 22.1742C130.514 21.7088 130.598 21.3026 130.767 20.9555C130.937 20.6084 131.174 20.3388 131.476 20.1469C131.781 19.9549 132.135 19.8589 132.538 19.8589C132.941 19.8589 133.294 19.9549 133.597 20.1469C133.901 20.3388 134.138 20.6084 134.307 20.9555C134.477 21.3026 134.563 21.7088 134.563 22.1742C134.563 22.6358 134.477 23.0391 134.307 23.3843C134.138 23.7295 133.901 23.998 133.597 24.19C133.294 24.382 132.941 24.478 132.538 24.478ZM132.538 23.8613C132.844 23.8613 133.096 23.7828 133.294 23.6257C133.492 23.4686 133.638 23.2621 133.734 23.0061C133.829 22.7502 133.876 22.4729 133.876 22.1742C133.876 21.8756 133.829 21.5973 133.734 21.3394C133.638 21.0815 133.492 20.8731 133.294 20.7141C133.096 20.555 132.844 20.4755 132.538 20.4755C132.232 20.4755 131.98 20.555 131.782 20.7141C131.584 20.8731 131.438 21.0815 131.343 21.3394C131.248 21.5973 131.2 21.8756 131.2 22.1742C131.2 22.4729 131.248 22.7502 131.343 23.0061C131.438 23.2621 131.584 23.4686 131.782 23.6257C131.98 23.7828 132.232 23.8613 132.538 23.8613ZM137.425 25.9091V18.4278H138.112V25.9091H137.425ZM137.425 24.478C137.123 24.478 136.848 24.4237 136.599 24.3151C136.351 24.2045 136.138 24.0484 135.959 23.8468C135.781 23.6432 135.643 23.3998 135.546 23.1167C135.449 22.8336 135.401 22.5194 135.401 22.1742C135.401 21.8252 135.449 21.5091 135.546 21.226C135.643 20.9409 135.781 20.6966 135.959 20.493C136.138 20.2894 136.351 20.1333 136.599 20.0247C136.848 19.9142 137.123 19.8589 137.425 19.8589H137.635V24.478H137.425ZM137.425 23.8613H137.542V20.4755H137.425C137.197 20.4755 136.998 20.5221 136.829 20.6152C136.66 20.7063 136.521 20.8314 136.41 20.9904C136.302 21.1475 136.22 21.3278 136.166 21.5314C136.114 21.735 136.087 21.9493 136.087 22.1742C136.087 22.4729 136.135 22.7502 136.23 23.0061C136.325 23.2621 136.471 23.4686 136.669 23.6257C136.867 23.7828 137.119 23.8613 137.425 23.8613ZM138.112 24.478H137.902V19.8589H138.112C138.414 19.8589 138.69 19.9142 138.938 20.0247C139.186 20.1333 139.399 20.2894 139.578 20.493C139.756 20.6966 139.894 20.9409 139.991 21.226C140.088 21.5091 140.136 21.8252 140.136 22.1742C140.136 22.5194 140.088 22.8336 139.991 23.1167C139.894 23.3998 139.756 23.6432 139.578 23.8468C139.399 24.0484 139.186 24.2045 138.938 24.3151C138.69 24.4237 138.414 24.478 138.112 24.478ZM138.112 23.8613C138.343 23.8613 138.541 23.8167 138.708 23.7275C138.877 23.6364 139.016 23.5123 139.124 23.3552C139.235 23.1962 139.316 23.0158 139.368 22.8142C139.423 22.6106 139.45 22.3972 139.45 22.1742C139.45 21.8756 139.402 21.5973 139.307 21.3394C139.212 21.0815 139.066 20.8731 138.868 20.7141C138.67 20.555 138.418 20.4755 138.112 20.4755H137.996V23.8613H138.112ZM141.872 23.3726L144.025 19.9171H144.816V24.3849H144.129V20.9293L141.989 24.3849H141.186V19.9171H141.872V23.3726ZM145.678 24.3849V23.745H145.84C145.974 23.745 146.086 23.7188 146.175 23.6664C146.264 23.6121 146.336 23.5181 146.39 23.3843C146.446 23.2485 146.489 23.0604 146.518 22.82C146.549 22.5776 146.571 22.2693 146.585 21.895L146.666 19.9171H149.645V24.3849H148.959V20.557H147.318L147.248 22.151C147.233 22.5175 147.2 22.8403 147.149 23.1196C147.101 23.3969 147.026 23.6296 146.925 23.8177C146.826 24.0058 146.695 24.1473 146.53 24.2424C146.365 24.3374 146.158 24.3849 145.91 24.3849H145.678ZM151.498 21.5343H152.778C153.301 21.5343 153.702 21.6672 153.979 21.9328C154.256 22.1985 154.395 22.5349 154.395 22.9422C154.395 23.2098 154.333 23.4531 154.209 23.6722C154.085 23.8894 153.902 24.063 153.662 24.1929C153.422 24.3209 153.127 24.3849 152.778 24.3849H150.905V19.9171H151.591V23.745H152.778C153.049 23.745 153.272 23.6732 153.447 23.5297C153.621 23.3862 153.709 23.202 153.709 22.9771C153.709 22.7405 153.621 22.5475 153.447 22.3982C153.272 22.2489 153.049 22.1742 152.778 22.1742H151.498V21.5343ZM157.267 25.6647V23.745H157.639C157.73 23.6499 157.809 23.5472 157.875 23.4366C157.941 23.3261 157.998 23.1952 158.046 23.044C158.097 22.8908 158.139 22.7046 158.174 22.4855C158.209 22.2644 158.24 21.9978 158.267 21.6856L158.419 19.9171H161.257V23.745H161.944V25.6647H161.257V24.3849H157.953V25.6647H157.267ZM158.419 23.745H160.571V20.557H159.058L158.942 21.6856C158.894 22.1529 158.834 22.5611 158.762 22.9102C158.69 23.2592 158.576 23.5375 158.419 23.745ZM162.459 24.3849V23.745H162.622C162.756 23.745 162.868 23.7188 162.957 23.6664C163.046 23.6121 163.118 23.5181 163.172 23.3843C163.228 23.2485 163.271 23.0604 163.3 22.82C163.331 22.5776 163.353 22.2693 163.367 21.895L163.448 19.9171H166.427V24.3849H165.741V20.557H164.1L164.03 22.151C164.015 22.5175 163.982 22.8403 163.931 23.1196C163.883 23.3969 163.808 23.6296 163.707 23.8177C163.608 24.0058 163.477 24.1473 163.312 24.2424C163.147 24.3374 162.94 24.3849 162.692 24.3849H162.459ZM170.374 24.3849V20.5454H169.187C168.92 20.5454 168.709 20.6074 168.556 20.7315C168.403 20.8556 168.326 21.0263 168.326 21.2434C168.326 21.4568 168.395 21.6245 168.533 21.7467C168.673 21.8688 168.864 21.9299 169.106 21.9299H170.549V22.5698H169.106C168.803 22.5698 168.543 22.5165 168.324 22.4099C168.104 22.3032 167.936 22.151 167.817 21.9532C167.699 21.7534 167.64 21.5169 167.64 21.2434C167.64 20.9681 167.702 20.7315 167.826 20.5337C167.95 20.3359 168.128 20.1837 168.358 20.077C168.591 19.9704 168.867 19.9171 169.187 19.9171H171.026V24.3849H170.374ZM167.396 24.3849L168.664 22.1626H169.408L168.14 24.3849H167.396ZM174.334 20.557V19.9171H177.964V20.557H176.498V24.3849H175.811V20.557H174.334ZM179.407 26.0603C179.291 26.0603 179.187 26.0506 179.096 26.0312C179.005 26.0138 178.942 25.9963 178.907 25.9789L179.081 25.3739C179.248 25.4165 179.396 25.432 179.524 25.4204C179.652 25.4088 179.765 25.3516 179.864 25.2488C179.965 25.1479 180.057 24.9841 180.14 24.7572L180.268 24.4082L178.616 19.9171H179.361L180.594 23.4774H180.641L181.874 19.9171H182.619L180.722 25.0364C180.637 25.2672 180.531 25.4582 180.405 25.6095C180.279 25.7627 180.133 25.8761 179.966 25.9498C179.801 26.0235 179.615 26.0603 179.407 26.0603ZM184.703 24.4896C184.42 24.4896 184.163 24.4363 183.933 24.3296C183.702 24.221 183.519 24.0649 183.383 23.8613C183.247 23.6558 183.179 23.4076 183.179 23.1167C183.179 22.8607 183.23 22.6532 183.33 22.4942C183.431 22.3333 183.566 22.2072 183.735 22.1161C183.903 22.0249 184.09 21.9571 184.293 21.9125C184.499 21.8659 184.705 21.8291 184.913 21.8019C185.184 21.767 185.404 21.7408 185.573 21.7234C185.744 21.704 185.868 21.672 185.945 21.6274C186.025 21.5828 186.065 21.5052 186.065 21.3947V21.3714C186.065 21.0844 185.986 20.8614 185.829 20.7024C185.674 20.5434 185.438 20.4639 185.122 20.4639C184.795 20.4639 184.538 20.5357 184.351 20.6792C184.165 20.8227 184.034 20.9758 183.959 21.1387L183.307 20.906C183.424 20.6346 183.579 20.4232 183.773 20.2719C183.968 20.1187 184.182 20.0121 184.412 19.952C184.645 19.8899 184.874 19.8589 185.099 19.8589C185.242 19.8589 185.407 19.8763 185.593 19.9112C185.782 19.9442 185.963 20.0131 186.137 20.1178C186.314 20.2225 186.46 20.3805 186.577 20.5919C186.693 20.8033 186.751 21.0864 186.751 21.4412V24.3849H186.065V23.7799H186.03C185.983 23.8768 185.906 23.9806 185.797 24.0911C185.688 24.2016 185.544 24.2957 185.364 24.3733C185.183 24.4508 184.963 24.4896 184.703 24.4896ZM184.808 23.8729C185.08 23.8729 185.308 23.8196 185.495 23.713C185.683 23.6063 185.824 23.4686 185.919 23.2999C186.016 23.1312 186.065 22.9538 186.065 22.7676V22.1393C186.036 22.1742 185.972 22.2062 185.873 22.2353C185.776 22.2625 185.663 22.2867 185.535 22.308C185.409 22.3274 185.286 22.3449 185.166 22.3604C185.048 22.374 184.952 22.3856 184.878 22.3953C184.699 22.4186 184.533 22.4564 184.378 22.5088C184.224 22.5592 184.1 22.6358 184.005 22.7385C183.912 22.8394 183.866 22.9771 183.866 23.1516C183.866 23.3901 183.954 23.5704 184.13 23.6926C184.309 23.8128 184.535 23.8729 184.808 23.8729ZM187.608 24.3849V23.745H187.771C187.905 23.745 188.017 23.7188 188.106 23.6664C188.195 23.6121 188.267 23.5181 188.321 23.3843C188.377 23.2485 188.42 23.0604 188.449 22.82C188.48 22.5776 188.502 22.2693 188.516 21.895L188.597 19.9171H191.576V24.3849H190.89V20.557H189.249L189.179 22.151C189.164 22.5175 189.131 22.8403 189.08 23.1196C189.032 23.3969 188.957 23.6296 188.856 23.8177C188.757 24.0058 188.626 24.1473 188.461 24.2424C188.296 24.3374 188.089 24.3849 187.841 24.3849H187.608ZM194.709 24.478C194.278 24.478 193.907 24.3829 193.595 24.1929C193.284 24.0009 193.045 23.7333 192.876 23.3901C192.709 23.0449 192.626 22.6435 192.626 22.1859C192.626 21.7282 192.709 21.3249 192.876 20.9758C193.045 20.6249 193.28 20.3514 193.58 20.1556C193.883 19.9578 194.236 19.8589 194.639 19.8589C194.872 19.8589 195.101 19.8977 195.328 19.9752C195.555 20.0528 195.762 20.1789 195.948 20.3534C196.134 20.526 196.282 20.7548 196.393 21.0398C196.503 21.3249 196.559 21.6759 196.559 22.0928V22.3837H193.115V21.7903H195.861C195.861 21.5382 195.81 21.3133 195.709 21.1155C195.61 20.9177 195.469 20.7616 195.285 20.6472C195.102 20.5327 194.887 20.4755 194.639 20.4755C194.365 20.4755 194.129 20.5434 193.929 20.6792C193.731 20.813 193.579 20.9875 193.472 21.2027C193.366 21.418 193.312 21.6487 193.312 21.895V22.2906C193.312 22.628 193.371 22.914 193.487 23.1487C193.605 23.3814 193.769 23.5588 193.979 23.681C194.188 23.8012 194.431 23.8613 194.709 23.8613C194.889 23.8613 195.052 23.8361 195.197 23.7857C195.345 23.7333 195.472 23.6558 195.578 23.553C195.685 23.4483 195.767 23.3183 195.826 23.1632L196.489 23.3494C196.419 23.5743 196.302 23.7721 196.137 23.9428C195.972 24.1115 195.768 24.2433 195.526 24.3383C195.284 24.4314 195.011 24.478 194.709 24.478ZM197.187 20.557V19.9171H200.817V20.557H199.351V24.3849H198.665V20.557H197.187ZM204.809 21.8368V22.4768H202.342V21.8368H204.809ZM202.505 19.9171V24.3849H201.818V19.9171H202.505ZM205.332 19.9171V24.3849H204.646V19.9171H205.332ZM207.179 21.5343H208.459C208.983 21.5343 209.383 21.6672 209.66 21.9328C209.938 22.1985 210.076 22.5349 210.076 22.9422C210.076 23.2098 210.014 23.4531 209.89 23.6722C209.766 23.8894 209.584 24.063 209.343 24.1929C209.103 24.3209 208.808 24.3849 208.459 24.3849H206.586V19.9171H207.272V23.745H208.459C208.731 23.745 208.954 23.6732 209.128 23.5297C209.303 23.3862 209.39 23.202 209.39 22.9771C209.39 22.7405 209.303 22.5475 209.128 22.3982C208.954 22.2489 208.731 22.1742 208.459 22.1742H207.179V21.5343ZM210.786 24.3849V19.9171H211.472V24.3849H210.786ZM213.241 19.9171L214.311 21.7438L215.382 19.9171H216.173L214.73 22.151L216.173 24.3849H215.382L214.311 22.6513L213.241 24.3849H212.45L213.869 22.151L212.45 19.9171H213.241ZM219.456 24.3849V19.9171H220.143V21.8601H220.596L222.202 19.9171H223.086L221.283 22.0695L223.11 24.3849H222.225L220.759 22.5H220.143V24.3849H219.456ZM225.17 24.4896C224.887 24.4896 224.63 24.4363 224.4 24.3296C224.169 24.221 223.986 24.0649 223.85 23.8613C223.714 23.6558 223.646 23.4076 223.646 23.1167C223.646 22.8607 223.697 22.6532 223.798 22.4942C223.898 22.3333 224.033 22.2072 224.202 22.1161C224.371 22.0249 224.557 21.9571 224.76 21.9125C224.966 21.8659 225.172 21.8291 225.38 21.8019C225.651 21.767 225.871 21.7408 226.04 21.7234C226.211 21.704 226.335 21.672 226.413 21.6274C226.492 21.5828 226.532 21.5052 226.532 21.3947V21.3714C226.532 21.0844 226.453 20.8614 226.296 20.7024C226.141 20.5434 225.905 20.4639 225.589 20.4639C225.262 20.4639 225.005 20.5357 224.819 20.6792C224.632 20.8227 224.501 20.9758 224.426 21.1387L223.774 20.906C223.891 20.6346 224.046 20.4232 224.24 20.2719C224.436 20.1187 224.649 20.0121 224.88 19.952C225.112 19.8899 225.341 19.8589 225.566 19.8589C225.71 19.8589 225.874 19.8763 226.061 19.9112C226.249 19.9442 226.43 20.0131 226.604 20.1178C226.781 20.2225 226.927 20.3805 227.044 20.5919C227.16 20.8033 227.218 21.0864 227.218 21.4412V24.3849H226.532V23.7799H226.497C226.45 23.8768 226.373 23.9806 226.264 24.0911C226.156 24.2016 226.011 24.2957 225.831 24.3733C225.65 24.4508 225.43 24.4896 225.17 24.4896ZM225.275 23.8729C225.547 23.8729 225.775 23.8196 225.962 23.713C226.15 23.6063 226.291 23.4686 226.386 23.2999C226.483 23.1312 226.532 22.9538 226.532 22.7676V22.1393C226.503 22.1742 226.439 22.2062 226.34 22.2353C226.243 22.2625 226.13 22.2867 226.002 22.308C225.876 22.3274 225.753 22.3449 225.633 22.3604C225.515 22.374 225.419 22.3856 225.345 22.3953C225.167 22.4186 225 22.4564 224.845 22.5088C224.691 22.5592 224.567 22.6358 224.472 22.7385C224.379 22.8394 224.333 22.9771 224.333 23.1516C224.333 23.3901 224.421 23.5704 224.597 23.6926C224.776 23.8128 225.002 23.8729 225.275 23.8729ZM231.787 18.2416L232.136 18.6605C232 18.7924 231.843 18.8845 231.665 18.9368C231.487 18.9892 231.285 19.0212 231.06 19.0328C230.835 19.0444 230.585 19.0561 230.309 19.0677C229.999 19.0793 229.742 19.155 229.539 19.2946C229.335 19.4342 229.178 19.6359 229.067 19.8996C228.957 20.1633 228.886 20.4872 228.855 20.8711H228.913C229.065 20.5919 229.274 20.3863 229.542 20.2545C229.809 20.1226 230.096 20.0567 230.403 20.0567C230.752 20.0567 231.066 20.1381 231.345 20.301C231.624 20.4639 231.845 20.7053 232.008 21.0253C232.171 21.3453 232.253 21.7399 232.253 22.2092C232.253 22.6765 232.169 23.0798 232.002 23.4192C231.838 23.7585 231.606 24.0203 231.307 24.2045C231.01 24.3868 230.662 24.478 230.263 24.478C229.863 24.478 229.513 24.3839 229.213 24.1958C228.912 24.0058 228.679 23.7246 228.512 23.3523C228.345 22.978 228.262 22.5155 228.262 21.9648V21.4878C228.262 20.493 228.43 19.7387 228.768 19.2248C229.107 18.7109 229.617 18.4452 230.298 18.4278C230.538 18.42 230.753 18.4181 230.941 18.422C231.129 18.4258 231.293 18.4171 231.432 18.3958C231.572 18.3745 231.69 18.3231 231.787 18.2416ZM230.263 23.8613C230.532 23.8613 230.764 23.7934 230.958 23.6577C231.154 23.522 231.304 23.331 231.409 23.0847C231.514 22.8365 231.566 22.5446 231.566 22.2092C231.566 21.8834 231.513 21.6061 231.406 21.3773C231.301 21.1484 231.151 20.9739 230.955 20.8537C230.759 20.7334 230.525 20.6733 230.251 20.6733C230.052 20.6733 229.872 20.7073 229.713 20.7751C229.554 20.843 229.418 20.9429 229.306 21.0747C229.194 21.2066 229.106 21.3676 229.044 21.5576C228.984 21.7476 228.952 21.9648 228.948 22.2092C228.948 22.7095 229.066 23.1099 229.3 23.4105C229.535 23.711 229.856 23.8613 230.263 23.8613ZM233.989 23.3726L236.142 19.9171H236.933V24.3849H236.246V20.9293L234.105 24.3849H233.303V19.9171H233.989V23.3726ZM241.18 21.8368V22.4768H238.714V21.8368H241.18ZM238.876 19.9171V24.3849H238.19V19.9171H238.876ZM241.704 19.9171V24.3849H241.017V19.9171H241.704Z" fill="white"/>
</g>
<defs>
<filter id="filter0_d_1_389" x="0.593661" y="0.558813" width="273.813" height="77.6834" filterUnits="userSpaceOnUse" color-interpolation-filters="sRGB">
<feFlood flood-opacity="0" result="BackgroundImageFix"/>
<feColorMatrix in="SourceAlpha" type="matrix" values="0 0 0 0 0 0 0 0 0 0 0 0 0 0 0 0 0 0 127 0" result="hardAlpha"/>
<feOffset dy="1.40058"/>
<feGaussianBlur stdDeviation="7.70317"/>
<feComposite in2="hardAlpha" operator="out"/>
<feColorMatrix type="matrix" values="0 0 0 0 0 0 0 0 0 0 0 0 0 0 0 0 0 0 0.05 0"/>
<feBlend mode="normal" in2="BackgroundImageFix" result="effect1_dropShadow_1_389"/>
<feBlend mode="normal" in="SourceGraphic" in2="effect1_dropShadow_1_389" result="shape"/>
</filter>
<clipPath id="clip0_1_389">
<rect width="243" height="46.8708" fill="white" transform="translate(16 14.5646)"/>
</clipPath>
</defs>
</svg>
