<svg width="18" height="13" viewBox="0 0 18 13" fill="none" xmlns="http://www.w3.org/2000/svg">
<path id="Vector" d="M1.51515 0H16.2075C16.9914 0.0010761 17.6455 0.599208 17.7164 1.3801L9.84381 8.05694C9.27957 8.53813 8.44936 8.53849 7.88477 8.05765L0.00609827 1.38637C0.0735339 0.602974 0.7287 0.0010761 1.51515 0ZM1.51515 13C1.18353 13.0004 0.86106 12.8913 0.597774 12.6897L4.99167 8.19539C5.0731 8.11343 5.1043 7.99416 5.07346 7.88297C5.04261 7.77159 4.95455 7.6855 4.84263 7.65717C4.73054 7.62883 4.61199 7.66273 4.532 7.74612L0.178992 12.1985C0.0613381 11.9791 -0.000178959 11.734 3.91042e-07 11.4849V2.22358L7.46939 8.54836C8.2736 9.23293 9.45587 9.23258 10.2595 8.5471L17.7227 2.21748V11.4849C17.723 11.7349 17.661 11.9809 17.5424 12.2008L13.1634 7.74541C13.0387 7.61986 12.8363 7.6186 12.71 7.74254C12.5839 7.86665 12.5816 8.06913 12.705 8.19593L17.1231 12.6912C16.86 12.8919 16.5384 13.0004 16.2075 13H1.51515Z" fill="#05839B"/>
</svg>
