<svg width="20" height="15" viewBox="0 0 20 15" fill="none" xmlns="http://www.w3.org/2000/svg">
<path d="M18.2141 15C18.6637 15 19.0533 14.8583 19.3844 14.5785L13.7181 9.16958C13.5821 9.2625 13.4504 9.35287 13.3259 9.43879C12.9019 9.73701 12.5577 9.96972 12.2934 10.1365C12.0292 10.3036 11.6776 10.474 11.2388 10.6479C10.7996 10.822 10.3905 10.9088 10.011 10.9088H9.98876C9.6092 10.9088 9.20008 10.8221 8.76097 10.6479C8.32186 10.474 7.9703 10.3036 7.70632 10.1365C7.44208 9.96972 7.0981 9.73704 6.67384 9.43879C6.55562 9.35605 6.4245 9.26528 6.28274 9.16812L0.615329 14.5785C0.94645 14.8583 1.33625 15 1.78578 15H18.2141Z" fill="white"/>
<path d="M1.12735 5.76356C0.703347 5.49373 0.327345 5.18469 0 4.8366V13.0659L4.99427 8.29863C3.99513 7.6328 2.7078 6.78875 1.12735 5.76356Z" fill="white"/>
<path d="M18.8839 5.76356C17.3638 6.7457 16.0718 7.59121 15.0077 8.30054L20 13.0661V4.8366C19.6799 5.17769 19.3079 5.48652 18.8839 5.76356Z" fill="white"/>
<path d="M18.2141 0H1.78582C1.21268 0 0.772048 0.18474 0.463367 0.55384C0.154431 0.923114 0.000217867 1.38493 0.000217867 1.93877C0.000217867 2.38613 0.204868 2.87086 0.613985 3.39309C1.0231 3.91511 1.45844 4.32515 1.91977 4.6234C2.17268 4.79397 2.93536 5.30008 4.20781 6.14157C4.89471 6.59593 5.49206 6.99196 6.00539 7.33372C6.44294 7.62473 6.82029 7.87674 7.13184 8.08588C7.1676 8.10983 7.22385 8.14824 7.2985 8.19919C7.37893 8.25433 7.48071 8.32431 7.60628 8.41086C7.84807 8.57779 8.04895 8.71272 8.20893 8.8158C8.3687 8.91891 8.56228 9.03409 8.78937 9.16199C9.01628 9.28971 9.23029 9.38576 9.43117 9.44964C9.63208 9.51348 9.81806 9.54551 9.98916 9.54551H10.0114C10.1824 9.54551 10.3685 9.51348 10.5694 9.44964C10.7703 9.38576 10.9841 9.28992 11.2112 9.16199C11.438 9.03409 11.6314 8.91867 11.7916 8.8158C11.9516 8.71272 12.1525 8.57782 12.3943 8.41086C12.5196 8.32431 12.6214 8.2543 12.7019 8.19936C12.7766 8.1482 12.8328 8.11004 12.8687 8.08588C13.1114 7.92468 13.4897 7.6737 13.9982 7.33666C14.9234 6.723 16.2861 5.81978 18.092 4.6234C18.6351 4.2613 19.0888 3.82434 19.4535 3.31313C19.8175 2.80192 20 2.26569 20 1.7046C20 1.23582 19.8231 0.834695 19.4699 0.500602C19.1164 0.166925 18.6978 0 18.2141 0Z" fill="white"/>
</svg>
