<svg width="59" height="77" viewBox="0 0 59 77" fill="none" xmlns="http://www.w3.org/2000/svg">
<path id="Vector" d="M29.3262 0C13.1562 0 0 13.1562 0 29.3262C0 35.7253 2.02125 41.8056 5.8502 46.9068L27.5185 76.0903C27.5726 76.161 27.6553 76.188 27.7155 76.2512C28.7983 77.4107 30.3609 77.119 31.1324 76.0903C37.3721 67.7647 48.8093 52.2156 53.2067 46.3504L53.2097 46.3429L53.2368 46.3068C56.78 41.3288 58.6523 35.4576 58.6523 29.3262C58.6523 13.1562 45.4962 0 29.3262 0ZM29.3262 45.1473C20.6201 45.1473 13.5051 38.0323 13.5051 29.3262C13.5051 20.6201 20.6201 13.5051 29.3262 13.5051C38.0323 13.5051 45.1473 20.6201 45.1473 29.3262C45.1473 38.0323 38.0323 45.1473 29.3262 45.1473Z" fill="#1FACC7"/>
</svg>
