<svg width="20" height="20" viewBox="0 0 20 20" fill="none" xmlns="http://www.w3.org/2000/svg">
<path d="M14.9773 13.2817C14.7919 13.0953 14.5716 12.9474 14.329 12.8465C14.0865 12.7456 13.8264 12.6937 13.5638 12.6937C13.3011 12.6937 13.041 12.7456 12.7985 12.8465C12.5559 12.9474 12.3356 13.0953 12.1502 13.2817L11.1857 14.248C10.0997 13.5575 9.09351 12.7484 8.18564 11.8356C7.27448 10.926 6.46687 9.91803 5.77763 8.83004L6.74216 7.86374C6.92821 7.678 7.07582 7.4573 7.17654 7.21429C7.27726 6.97127 7.32911 6.71073 7.32911 6.4476C7.32911 6.18447 7.27726 5.92393 7.17654 5.68092C7.07582 5.43791 6.92821 5.2172 6.74216 5.03147L4.85966 3.15217C4.67688 2.96517 4.45844 2.81689 4.21732 2.71615C3.97621 2.6154 3.71733 2.56425 3.45609 2.56572C3.19299 2.56508 2.93237 2.61656 2.6892 2.71721C2.44604 2.81785 2.22514 2.96568 2.03922 3.15217L1.13455 4.05183C0.703355 4.51631 0.381533 5.07168 0.192746 5.67714C0.0039584 6.2826 -0.0469947 6.92274 0.0436317 7.55052C0.256495 10.0496 1.89288 13.0551 4.41398 15.5875C6.93507 18.1199 9.96837 19.7526 12.4629 19.9925C12.649 20.0025 12.8355 20.0025 13.0216 19.9925C13.5586 20.0151 14.0947 19.9301 14.5984 19.7424C15.1021 19.5547 15.5634 19.2682 15.9551 18.8996L16.8532 17.9933C17.0393 17.807 17.1869 17.5857 17.2873 17.3421C17.3878 17.0985 17.4392 16.8374 17.4385 16.5738C17.44 16.3121 17.3889 16.0527 17.2884 15.8112C17.1878 15.5696 17.0398 15.3508 16.8532 15.1677L14.9773 13.2817Z" fill="white"/>
<path d="M17.0727 2.92559C16.1482 1.99592 15.0492 1.25877 13.839 0.756658C12.6289 0.254541 11.3314 -0.00261345 10.0216 2.00235e-05C9.84516 2.00235e-05 9.67597 0.0702316 9.55122 0.195209C9.42647 0.320186 9.35639 0.489692 9.35639 0.666437C9.35639 0.843182 9.42647 1.01269 9.55122 1.13766C9.67597 1.26264 9.84516 1.33285 10.0216 1.33285C11.1634 1.33281 12.2939 1.5593 13.3479 1.99926C14.4018 2.43921 15.3584 3.08392 16.1624 3.89617C16.9663 4.70843 17.6018 5.67215 18.032 6.73172C18.4623 7.79129 18.6788 8.92573 18.6691 10.0696C18.6691 10.2463 18.7392 10.4158 18.864 10.5408C18.9887 10.6658 19.1579 10.736 19.3343 10.736C19.5108 10.736 19.68 10.6658 19.8047 10.5408C19.9295 10.4158 19.9995 10.2463 19.9995 10.0696C20.0123 8.74337 19.7599 7.42802 19.2572 6.20107C18.7545 4.97413 18.0118 3.86041 17.0727 2.92559Z" fill="white"/>
<path d="M13.2877 6.73749C13.6652 7.11341 13.9639 7.56118 14.1661 8.05445C14.3683 8.54772 14.4699 9.07653 14.4651 9.60975C14.4651 9.7865 14.5352 9.956 14.6599 10.081C14.7847 10.206 14.9539 10.2762 15.1303 10.2762C15.3067 10.2762 15.4759 10.206 15.6007 10.081C15.7254 9.956 15.7955 9.7865 15.7955 9.60975C15.8043 8.90404 15.6732 8.20361 15.4097 7.54907C15.1462 6.89453 14.7556 6.29891 14.2606 5.79677C13.7655 5.29463 13.1759 4.89596 12.5259 4.62388C11.8759 4.3518 11.1784 4.21172 10.4739 4.21177C10.2975 4.21177 10.1283 4.28199 10.0036 4.40696C9.87881 4.53194 9.80872 4.70145 9.80872 4.87819C9.80872 5.05494 9.87881 5.22444 10.0036 5.34942C10.1283 5.4744 10.2975 5.54461 10.4739 5.54461C10.9981 5.54857 11.5165 5.65595 11.9993 5.86063C12.4821 6.06531 12.9199 6.36327 13.2877 6.73749Z" fill="white"/>
</svg>
