<svg width="20" height="20" viewBox="0 0 20 20" fill="none" xmlns="http://www.w3.org/2000/svg">
<g id="Vector">
<path d="M15.2051 13.2304C14.5517 12.5853 13.736 12.5853 13.0867 13.2304C12.5915 13.7215 12.0962 14.2126 11.6093 14.712C11.4761 14.8493 11.3637 14.8785 11.2014 14.7869C10.881 14.6121 10.5397 14.4706 10.2317 14.2792C8.79591 13.3761 7.59315 12.2149 6.52772 10.9081C5.99918 10.2589 5.52889 9.56384 5.20011 8.78142C5.13352 8.62327 5.146 8.51922 5.27502 8.39021C5.77028 7.9116 6.25304 7.42051 6.73998 6.92941C7.41835 6.24687 7.41835 5.44781 6.73582 4.76111C6.34877 4.3699 5.96172 3.98701 5.57467 3.5958C5.17514 3.19627 4.77977 2.79257 4.37607 2.3972C3.72267 1.76044 2.90695 1.76044 2.25771 2.40136C1.75829 2.89246 1.27968 3.39604 0.771943 3.87881C0.301659 4.32412 0.0644357 4.86932 0.014494 5.50607C-0.0645803 6.54236 0.18929 7.52039 0.547206 8.47344C1.27968 10.4461 2.39505 12.1983 3.74764 13.8047C5.57467 15.9772 7.75546 17.696 10.3066 18.9362C11.4553 19.4939 12.6456 19.9226 13.9399 19.9933C14.8305 20.0433 15.6046 19.8185 16.2247 19.1235C16.6492 18.6491 17.1278 18.2162 17.5773 17.7626C18.2432 17.0884 18.2474 16.2727 17.5856 15.6068C16.7949 14.8119 16 14.0211 15.2051 13.2304Z" fill="#05839B"/>
<path d="M14.4102 9.91343L15.9459 9.65123C15.7045 8.24038 15.0386 6.96271 14.0273 5.94722C12.9577 4.87764 11.6051 4.20343 10.1152 3.99534L9.89879 5.53937C11.0516 5.70168 12.1004 6.2219 12.9286 7.0501C13.711 7.83252 14.2229 8.82303 14.4102 9.91343Z" fill="#05839B"/>
<path d="M16.8116 3.23789C15.0387 1.46496 12.7955 0.34543 10.3192 0L10.1028 1.54403C12.2419 1.84368 14.1813 2.81338 15.7129 4.34077C17.1653 5.79324 18.1184 7.6286 18.4638 9.64707L19.9995 9.38488C19.5958 7.04594 18.493 4.92342 16.8116 3.23789Z" fill="#05839B"/>
</g>
</svg>
