<svg width="20" height="18" viewBox="0 0 20 18" fill="none" xmlns="http://www.w3.org/2000/svg">
<path d="M12.8889 14.4406H7.11109C6.74293 14.4406 6.44441 14.7296 6.44441 15.0862C6.44441 15.4427 6.74289 15.7317 7.11109 15.7317H12.8889C13.257 15.7317 13.5555 15.4427 13.5555 15.0862C13.5555 14.7296 13.2571 14.4406 12.8889 14.4406Z" fill="white"/>
<path d="M12.8889 12.4045H7.11109C6.74293 12.4045 6.44441 12.6935 6.44441 13.0501C6.44441 13.4066 6.74289 13.6957 7.11109 13.6957H12.8889C13.257 13.6957 13.5555 13.4066 13.5555 13.0501C13.5555 12.6935 13.2571 12.4045 12.8889 12.4045Z" fill="white"/>
<path d="M18.4445 4.38178H16.3232V0.645567C16.3232 0.289062 16.0248 0 15.6566 0H4.34344C3.97527 0 3.67676 0.289024 3.67676 0.645567V4.38178H1.55555C0.697812 4.38178 0 5.05753 0 5.8881V12.3828C0 13.2134 0.697812 13.8891 1.55555 13.8891H3.67687V17.3544C3.67687 17.7109 3.97535 18 4.34355 18H15.6564C16.0246 18 16.3231 17.711 16.3231 17.3544V13.8891H18.4445C19.3022 13.8891 20 13.2134 20 12.3828V5.8881C20 5.05757 19.3022 4.38178 18.4445 4.38178ZM5.01008 1.29113H14.9899V4.38178H5.01008V1.29113ZM14.9898 16.7089H5.01023C5.01023 16.5827 5.01023 11.5834 5.01023 11.4274H14.9898C14.9898 11.5873 14.9898 16.5876 14.9898 16.7089ZM15.6566 8.17245H13.9596C13.5914 8.17245 13.2929 7.88343 13.2929 7.52689C13.2929 7.17034 13.5914 6.88132 13.9596 6.88132H15.6566C16.0247 6.88132 16.3232 7.17034 16.3232 7.52689C16.3232 7.88343 16.0248 8.17245 15.6566 8.17245Z" fill="white"/>
</svg>
