<svg width="249" height="244" viewBox="0 0 249 244" fill="none" xmlns="http://www.w3.org/2000/svg">
<ellipse cx="124.5" cy="122" rx="71.5" ry="70" fill="url(#paint0_linear_1_665)"/>
<path d="M216.5 121.5C216.5 171.753 175.315 212.5 124.5 212.5C73.6847 212.5 32.5 171.753 32.5 121.5C32.5 71.2472 73.6847 30.5 124.5 30.5C175.315 30.5 216.5 71.2472 216.5 121.5Z" fill="url(#paint1_linear_1_665)" fill-opacity="0.6" stroke="url(#paint2_linear_1_665)"/>
<path d="M249 122C249 189.379 193.259 244 124.5 244C55.7405 244 0 189.379 0 122C0 54.6213 55.7405 0 124.5 0C193.259 0 249 54.6213 249 122Z" fill="url(#paint3_linear_1_665)" fill-opacity="0.3"/>
<defs>
<linearGradient id="paint0_linear_1_665" x1="196" y1="-98.7944" x2="127.312" y2="192.663" gradientUnits="userSpaceOnUse">
<stop stop-color="white"/>
<stop offset="1" stop-color="#FDFDFD" stop-opacity="0"/>
</linearGradient>
<linearGradient id="paint1_linear_1_665" x1="217" y1="-167.11" x2="126.382" y2="213.448" gradientUnits="userSpaceOnUse">
<stop stop-color="white"/>
<stop offset="1" stop-color="#FDFDFD" stop-opacity="0"/>
</linearGradient>
<linearGradient id="paint2_linear_1_665" x1="124.5" y1="30" x2="124.5" y2="213" gradientUnits="userSpaceOnUse">
<stop stop-color="white"/>
<stop offset="1" stop-color="white" stop-opacity="0"/>
</linearGradient>
<linearGradient id="paint3_linear_1_665" x1="249" y1="-262.813" x2="129.189" y2="245.106" gradientUnits="userSpaceOnUse">
<stop stop-color="white"/>
<stop offset="1" stop-color="#FDFDFD" stop-opacity="0"/>
</linearGradient>
</defs>
</svg>
