<svg width="13" height="14" viewBox="0 0 13 14" fill="none" xmlns="http://www.w3.org/2000/svg">
<path d="M6.50968 1.28855C3.34267 1.28855 0.766097 3.84789 0.766097 6.99373C0.766097 10.1396 3.34267 12.6989 6.50968 12.6989C9.67669 12.6989 12.2533 10.1396 12.2533 6.99373C12.2533 3.84792 9.67669 1.28855 6.50968 1.28855ZM10.3561 9.1996C10.2999 9.29661 10.1946 9.35696 10.0814 9.35696C10.0257 9.35696 9.97096 9.34233 9.92309 9.31469L6.35756 7.26979L6.35202 7.26678C6.25345 7.21015 6.19275 7.1057 6.19275 6.99376V2.89658C6.19275 2.723 6.33493 2.58177 6.50968 2.58177C6.68442 2.58177 6.8266 2.723 6.8266 2.89658V6.81192L10.2402 8.76959C10.3136 8.81167 10.3661 8.87962 10.3879 8.96091C10.4098 9.0421 10.3985 9.12689 10.3561 9.1996ZM5.02194 0.495255C5.15727 0.459681 5.23776 0.321787 5.20164 0.187365C5.16583 0.0529438 5.027 -0.0273372 4.89168 0.00856502C3.8677 0.278365 2.92105 0.742688 2.07837 1.38803C1.87681 1.5426 1.68382 1.70535 1.49968 1.87628L0.835715 1.32916C0.766317 1.27187 0.671539 1.25582 0.586919 1.28634C0.502299 1.31718 0.440196 1.39021 0.42434 1.47837L0.00377165 3.78965H0.00410201C-0.0145893 3.89134 0.0313545 3.99773 0.126435 4.0525C0.166378 4.07547 0.21012 4.08649 0.2532 4.08649C0.340684 4.08649 0.425937 4.04116 0.472817 3.96025C1.46131 2.26004 3.11944 0.997039 5.02194 0.495255ZM12.8736 9.95571C12.7523 9.88582 12.5973 9.92675 12.5273 10.047C11.5356 11.746 9.87557 13.0062 7.97214 13.5045C7.83682 13.5401 7.75599 13.6776 7.79181 13.8124C7.82159 13.9251 7.92427 14 8.03678 14C8.058 14 8.07988 13.9972 8.10144 13.9915C9.12605 13.7233 10.0733 13.2608 10.9173 12.6168C11.1192 12.4625 11.3125 12.3001 11.497 12.1298L12.16 12.6779C12.2062 12.7159 12.2636 12.7361 12.3222 12.7361C12.3511 12.7361 12.3805 12.7311 12.4084 12.721C12.4934 12.6904 12.5552 12.6174 12.5716 12.5296L12.996 10.2186C13.0144 10.1172 12.9687 10.0101 12.8736 9.95571Z" fill="white"/>
</svg>
