<svg width="16" height="21" viewBox="0 0 16 21" fill="none" xmlns="http://www.w3.org/2000/svg">
<path d="M13.481 12.1582C11.1849 11.3677 10.2305 10.3847 10.2305 10.3847L10.1536 10.4619C9.47173 11.1384 8.71758 11.536 8.03056 11.536H7.96572C7.27874 11.536 6.52459 11.1384 5.84271 10.4619L5.76583 10.3847C5.76583 10.3847 4.81144 11.3677 2.51529 12.1582C-0.874231 13.4927 0.143517 18.9239 0.142536 18.966C0.249291 19.5709 0.311514 19.7788 0.365729 19.8021C3.76955 21.3993 12.2268 21.3993 15.6307 19.8021C15.6849 19.7788 15.7471 19.5709 15.8539 18.966C15.8529 18.9239 16.8842 13.5143 13.481 12.1582Z" fill="white"/>
<path d="M11.5579 5.22938L11.5295 5.19687C11.3387 5.01283 11.3537 5.02338 11.3537 5.02338C11.3537 5.02338 11.6863 3.2543 11.4195 2.4177C11.0008 1.08164 8.49942 0.186185 7.99771 0.0821062C7.99779 0.0811158 7.69256 0.0167393 7.67308 0.0166102C7.67308 0.0166102 7.27845 -0.0674884 6.82108 0.142779C6.5232 0.263566 4.96592 1.00788 4.5239 2.4177C4.2572 3.2543 4.58984 5.02338 4.58984 5.02338C4.58984 5.02338 4.60476 5.01283 4.414 5.19687L4.38561 5.22938C4.25659 5.3838 4.28846 5.86695 4.42949 6.3696C4.55728 6.8732 4.72385 7.00854 4.76377 7.12649C5.16836 9.12871 6.57521 10.8382 8.00887 10.8382C9.44252 10.8382 10.7751 9.12871 11.1796 7.12649C11.2196 7.00859 11.3862 6.8732 11.514 6.3696C11.655 5.86691 11.6906 5.3506 11.5579 5.22938Z" fill="white"/>
</svg>
