<svg width="21" height="22" viewBox="0 0 21 22" fill="none" xmlns="http://www.w3.org/2000/svg">
<path d="M19.6429 3.14287H14.1429V2.35714C14.1429 1.05533 13.0876 0 11.7858 0H8.64289C7.34108 0 6.28575 1.05533 6.28575 2.35714V3.14287H0.78573C0.351776 3.14287 0 3.49464 0 3.9286C0 4.36255 0.351822 4.71428 0.78573 4.71428H1.63978L3.14287 21.2858C3.17994 21.6915 3.52112 22.0016 3.92861 22H16.5001C16.9075 22.0017 17.2487 21.6916 17.2858 21.2858L18.7888 4.71428H19.6429C20.0769 4.71428 20.4287 4.3625 20.4287 3.92855C20.4287 3.4946 20.0768 3.14287 19.6429 3.14287ZM7.85716 2.35714C7.85716 1.92319 8.20894 1.57141 8.64289 1.57141H11.7858C12.2197 1.57141 12.5715 1.92319 12.5715 2.35714V3.14287H7.85721L7.85716 2.35714ZM15.7827 20.4285H4.64597L3.22146 4.71428H17.2111L15.7827 20.4285Z" fill="#C7CDD4"/>
<path d="M7.85751 18.019C7.85742 18.018 7.85737 18.0169 7.85728 18.0158L7.07154 7.01582C7.04074 6.58186 6.66397 6.25508 6.23006 6.28588C5.7961 6.31668 5.46932 6.69346 5.50012 7.12737L6.28586 18.1274C6.31518 18.5394 6.65854 18.8583 7.07159 18.8573H7.12817C7.56107 18.8272 7.88762 18.4519 7.85751 18.019Z" fill="#C7CDD4"/>
<path d="M10.2136 6.28577C9.77964 6.28577 9.42786 6.63755 9.42786 7.0715V18.0715C9.42786 18.5054 9.77964 18.8572 10.2136 18.8572C10.6475 18.8572 10.9993 18.5054 10.9993 18.0715V7.0715C10.9993 6.63755 10.6475 6.28577 10.2136 6.28577Z" fill="#C7CDD4"/>
<path d="M14.1984 6.28588C13.7644 6.25508 13.3877 6.58186 13.3569 7.01582L12.5712 18.0158C12.5393 18.4486 12.8644 18.8252 13.2971 18.857C13.2985 18.8571 13.2998 18.8572 13.3011 18.8573H13.3569C13.77 18.8583 14.1133 18.5393 14.1426 18.1274L14.9284 7.12737C14.9592 6.69346 14.6323 6.31673 14.1984 6.28588Z" fill="#C7CDD4"/>
</svg>
