<svg width="52" height="50" viewBox="0 0 52 50" fill="none" xmlns="http://www.w3.org/2000/svg">
<path d="M11.0565 10.9239L14.8194 7.62292L10.8773 1.37787C10.6085 0.9318 10.7877 0.396511 11.1461 0.128866C11.5941 -0.138779 12.1316 0.0396512 12.4004 0.396511L16.1632 6.46312L18.2238 4.67883C18.403 4.58961 18.6718 4.5004 18.851 4.5004H43.9367C44.1159 4.5004 44.3847 4.58961 44.5639 4.67883L51.7312 10.9239C51.9104 11.1915 52 11.3699 52 11.6376V47.3236C52 47.8588 51.6416 48.2157 51.1041 48.2157H29.7812C29.7812 48.5726 29.6916 48.8402 29.5124 49.1971C29.2437 49.5539 28.7957 50 27.7206 50C26.9143 50 26.1975 49.7324 25.66 49.3755C25.3912 49.7324 24.8537 50 23.8681 50C23.0618 50 22.3451 49.7324 21.8075 49.3755C21.5388 49.7324 21.0012 50 20.0157 50C18.3134 50 17.3279 48.9294 16.7904 48.2157H11.4149C10.8773 48.2157 10.5189 47.8588 10.5189 47.3236V36.6178H9.8918C9.53344 36.6178 9.26466 36.4393 9.08547 36.1717L0.126284 21.0052C-0.142492 20.5591 0.0366931 20.0238 0.484653 19.7561C0.932612 19.4885 1.47016 19.6669 1.73894 20.113L10.4294 34.8335C13.1171 34.7443 17.2383 32.2462 17.8655 30.3727L1.0222 1.37787C0.843019 0.9318 0.932612 0.396511 1.38057 0.128866C1.82853 -0.0495639 2.36608 0.0396511 2.63486 0.485726L10.7877 14.6709V11.6376C10.7877 11.3699 10.8773 11.1915 11.0565 10.9239ZM14.1026 10.7454H23.689L26.2871 6.28469H19.2094L14.1026 10.7454ZM37.6653 12.5297H25.1224V21.8081L31.0355 18.864C31.3043 18.7748 31.573 18.7748 31.8418 18.864L37.6653 21.8081V12.5297ZM28.3477 6.28469L25.7496 10.7454H37.0382L34.44 6.28469H28.3477ZM43.5784 6.28469H36.5006L39.0988 10.7454H48.6851L43.5784 6.28469ZM50.2082 12.5297H39.4571V23.2355C39.4571 23.5032 39.2779 23.86 39.0092 24.0385C38.7404 24.2169 38.382 24.2169 38.1133 24.0385L31.3043 20.6483L24.4953 24.0385C24.4953 24.1277 24.4057 24.1277 24.2265 24.1277C24.0473 24.1277 23.8681 24.1277 23.7785 24.0385C23.5098 23.86 23.3306 23.5924 23.3306 23.2355V12.5297H12.5796V17.7042L19.6573 29.9266C19.8365 30.1943 19.8365 30.4619 19.6573 30.7296C19.4781 31.0864 19.299 31.4433 19.1198 31.7109L19.3885 32.157L24.3161 33.0492C24.6745 33.0492 25.66 33.2276 26.6455 34.209L30.2292 37.7776C30.4979 38.0452 30.5875 38.4913 30.4083 38.8481C29.8708 39.9187 28.4373 41.0785 26.5559 40.0971C26.5559 40.0971 26.4663 40.0971 26.4663 40.0079L26.3767 39.9187L29.2437 46.4314H50.2082V12.5297ZM20.1949 48.2157C20.4636 48.2157 20.6428 48.1265 20.6428 48.2157C20.6428 48.1265 20.6428 48.0373 20.5532 47.8588C20.5532 47.7696 20.4636 47.7696 20.4636 47.7696L17.9551 43.3089C17.6863 42.8628 17.8655 42.3275 18.3134 42.0599C18.7614 41.7922 19.299 41.9707 19.5677 42.4167L21.9867 46.7883L22.0763 46.8775C22.0763 46.8775 22.0763 46.9667 22.1659 47.0559C22.3451 47.4128 22.9722 48.2157 23.9577 48.2157C24.2265 48.2157 24.4057 48.1265 24.4057 48.2157C24.4057 48.1265 24.4057 47.8588 24.3161 47.7696L21.6283 42.4167C21.4492 41.9707 21.6283 41.4354 21.9867 41.2569C22.4347 41.0785 22.9722 41.2569 23.1514 41.6138L25.8392 46.9667C25.8392 46.9667 26.5559 48.3049 27.7206 48.3049C27.8102 48.3049 27.8998 48.3049 27.9894 48.3049C27.9894 48.2157 27.8998 47.9481 27.8102 47.7696L23.3306 37.956C23.1514 37.5991 23.241 37.1531 23.5994 36.8854C23.8681 36.6178 24.3161 36.6178 24.6745 36.7962L27.2726 38.5805C27.7206 38.7589 28.079 38.6697 28.3477 38.5805L25.3016 35.5472C24.7641 34.8335 24.2265 34.8335 24.2265 34.8335H24.0473L18.6718 33.9413C18.403 33.9413 18.2238 33.7629 18.0447 33.5845L17.8655 33.3168C16.5216 34.7443 14.8194 35.8148 12.9379 36.2609L18.3134 46.9667C18.3134 46.9667 19.0302 48.2157 20.1949 48.2157ZM16.0736 46.4314L12.5796 39.4726V46.4314H16.0736Z" fill="#1FACC7"/>
<path d="M45.7286 38.4021H41.249C40.7114 38.4021 40.3531 38.0452 40.3531 37.5099C40.3531 36.9746 40.7114 36.6178 41.249 36.6178H45.7286C46.2661 36.6178 46.6245 36.9746 46.6245 37.5099C46.6245 38.0452 46.2661 38.4021 45.7286 38.4021Z" fill="#1FACC7"/>
<path d="M38.5612 41.0785H45.7286C46.2661 41.0785 46.6245 41.4354 46.6245 41.9707C46.6245 42.5059 46.2661 42.8628 45.7286 42.8628H38.5612C38.0237 42.8628 37.6653 42.5059 37.6653 41.9707C37.6653 41.4354 38.0237 41.0785 38.5612 41.0785Z" fill="#1FACC7"/>
</svg>
