<svg width="43" height="54" viewBox="0 0 43 54" fill="none" xmlns="http://www.w3.org/2000/svg">
<path d="M41.7808 40.9218C42.2204 40.9218 42.5768 40.5677 42.5768 40.1308V21.1464C42.5768 20.2023 42.2065 19.2365 41.5341 18.427L35.6302 11.319C35.3209 10.9466 34.9654 10.6327 34.5792 10.3828C34.6029 10.1411 34.6164 9.89689 34.6164 9.65041V0.791017C34.6164 0.354165 34.26 0 33.8203 0C33.3807 0 33.0243 0.354165 33.0243 0.791017C33.0243 0.791017 33.0227 9.72582 33.022 9.76358C32.7955 9.72371 32.5656 9.70314 32.3344 9.70314H22.0387C21.3139 9.70314 20.6034 9.90522 19.9673 10.2766C19.9398 10.2864 19.9125 10.2974 19.8858 10.3103L12.1257 14.0663C11.266 14.4948 10.5785 15.2136 10.1897 16.0901C10.1855 16.0997 10.1814 16.1093 10.1776 16.119L6.96921 24.2055C6.80798 24.612 7.0088 25.0713 7.41787 25.2317C7.51371 25.2692 7.61242 25.2869 7.70965 25.2869C8.02701 25.2869 8.32696 25.097 8.4504 24.7858L11.6526 16.7149C11.8934 16.1803 12.3144 15.7423 12.8312 15.4845L16.9312 13.5001L12.8389 18.4271C12.2261 19.1648 11.9023 20.1052 11.9023 21.1466V48.4631C11.9023 48.7812 11.9304 49.0926 11.9815 49.3962L3.77873 45.7845C1.92573 44.9687 1.08595 42.8016 1.90705 40.9538C1.91055 40.9458 1.91395 40.9377 1.91734 40.9297L7.10581 28.1169C7.26991 27.7115 7.07238 27.2509 6.66448 27.0877C6.25637 26.9246 5.79296 27.121 5.62876 27.5262L0.444856 40.3271C-0.720779 42.9691 0.483279 46.0638 3.13371 47.2307L12.7526 51.4659C12.7644 51.4711 12.7764 51.4749 12.7883 51.4794C13.7645 52.9952 15.4524 54 17.3685 54H37.0045C40.0251 54 42.5769 51.4643 42.5769 48.4629V43.8222C42.5769 43.3854 42.2205 43.0312 41.7809 43.0312C41.3412 43.0312 40.9848 43.3854 40.9848 43.8222V48.4629C40.9848 50.6067 39.1621 52.418 37.0045 52.418H17.3685C15.2324 52.418 13.4944 50.6438 13.4944 48.4629V21.1464C13.4944 20.4674 13.687 19.8912 14.0668 19.434L19.9707 12.3261C20.5202 11.6646 21.274 11.2851 22.0387 11.2851H32.3344C32.4843 11.2851 32.6338 11.3002 32.7814 11.3286C32.2831 13.0173 31.0487 14.4264 29.3817 15.1325C28.9458 14.408 28.1489 13.9218 27.2395 13.9218C25.8641 13.9218 24.7452 15.0337 24.7452 16.4003C24.7452 17.767 25.8641 18.8788 27.2395 18.8788C28.5114 18.8788 29.5632 17.9277 29.7145 16.7038C31.8584 15.898 33.4796 14.1906 34.2019 12.1067C34.2712 12.176 34.3383 12.2488 34.4024 12.3261L40.3063 19.4341C40.7438 19.9608 40.9848 20.569 40.9848 21.1465V40.1309C40.9847 40.5677 41.3411 40.9218 41.7808 40.9218ZM27.2395 17.2968C26.742 17.2968 26.3373 16.8946 26.3373 16.4003C26.3373 15.906 26.742 15.5038 27.2395 15.5038C27.737 15.5038 28.1417 15.906 28.1417 16.4003C28.1417 16.8946 27.737 17.2968 27.2395 17.2968Z" fill="#1FACC7"/>
<path d="M20.3404 42.082C20.5441 42.082 20.7478 42.0048 20.9032 41.8503L34.4892 28.3503C34.8001 28.0413 34.8001 27.5405 34.4892 27.2317C34.1783 26.9227 33.6743 26.9227 33.3635 27.2317L19.7775 40.7317C19.2699 41.2018 19.6594 42.1059 20.3404 42.082Z" fill="#1FACC7"/>
<path d="M22.0386 33.75C23.9407 33.75 25.4882 32.2122 25.4882 30.3222C25.4882 28.4322 23.9407 26.8945 22.0386 26.8945H21.9325C20.0304 26.8945 18.4829 28.4322 18.4829 30.3222C18.4829 32.2122 20.0304 33.75 21.9325 33.75H22.0386ZM20.075 30.3222C20.075 29.3046 20.9083 28.4765 21.9325 28.4765H22.0386C23.0628 28.4765 23.8961 29.3046 23.8961 30.3222C23.8961 31.3399 23.0628 32.1679 22.0386 32.1679H21.9325C20.9083 32.1679 20.075 31.3399 20.075 30.3222Z" fill="#1FACC7"/>
<path d="M32.3343 42.082H32.4404C34.3424 42.082 35.89 40.5443 35.89 38.6543C35.89 36.7643 34.3424 35.2265 32.4404 35.2265H32.3343C30.4322 35.2265 28.8847 36.7643 28.8847 38.6543C28.8847 40.5443 30.4322 42.082 32.3343 42.082ZM32.3343 36.8086H32.4404C33.4645 36.8086 34.2979 37.6366 34.2979 38.6543C34.2979 39.6719 33.4645 40.5 32.4404 40.5H32.3343C31.3101 40.5 30.4768 39.6719 30.4768 38.6543C30.4768 37.6366 31.3101 36.8086 32.3343 36.8086Z" fill="#1FACC7"/>
</svg>
