<svg width="47" height="48" viewBox="0 0 47 48" fill="none" xmlns="http://www.w3.org/2000/svg">
<path d="M23.7572 17.0162H5.93933C5.55492 17.0162 5.24336 17.331 5.24336 17.7192C5.24336 18.1075 5.55492 18.4222 5.93933 18.4222H23.7573C24.1417 18.4222 24.4533 18.1074 24.4533 17.7192C24.4533 17.331 24.1418 17.0162 23.7572 17.0162Z" fill="#1FACC7"/>
<path d="M23.7572 21.9564H5.93933C5.55492 21.9564 5.24336 22.2713 5.24336 22.6595C5.24336 23.0477 5.55492 23.3625 5.93933 23.3625H23.7573C24.1417 23.3625 24.4533 23.0477 24.4533 22.6595C24.4533 22.2713 24.1418 21.9564 23.7572 21.9564Z" fill="#1FACC7"/>
<path d="M23.7572 26.8966H5.93933C5.55492 26.8966 5.24336 27.2114 5.24336 27.5996C5.24336 27.9878 5.55492 28.3027 5.93933 28.3027H23.7573C24.1417 28.3027 24.4533 27.9878 24.4533 27.5996C24.4533 27.2114 24.1418 26.8966 23.7572 26.8966Z" fill="#1FACC7"/>
<path d="M24.4533 32.54C24.4533 32.1517 24.1417 31.8369 23.7573 31.8369H5.93933C5.55492 31.8369 5.24336 32.1517 5.24336 32.54C5.24336 32.9282 5.55492 33.243 5.93933 33.243H23.7573C24.1417 33.243 24.4533 32.9283 24.4533 32.54Z" fill="#1FACC7"/>
<path d="M5.93933 39.077C5.55492 39.077 5.24336 39.3918 5.24336 39.78C5.24336 40.1682 5.55492 40.483 5.93933 40.483H14.8711C15.2555 40.483 15.5671 40.1682 15.5671 39.78C15.5671 39.3918 15.2555 39.077 14.8711 39.077H5.93933Z" fill="#1FACC7"/>
<path d="M31.7779 8.70497V6.42366C31.7779 5.55459 31.078 4.84753 30.2176 4.84753H15.928C15.0677 4.84753 14.3678 5.55459 14.3678 6.42366V8.70497C14.3678 9.57403 15.0677 10.281 15.928 10.281H17.1347C17.5192 10.281 17.8307 9.96619 17.8307 9.57797C17.8307 9.18966 17.5192 8.87494 17.1347 8.87494H15.928C15.8353 8.87494 15.7599 8.79872 15.7599 8.70506V6.42366C15.7599 6.33 15.8353 6.25369 15.928 6.25369H30.2176C30.3104 6.25369 30.3859 6.32991 30.3859 6.42366V8.70497C30.3859 8.79862 30.3104 8.87484 30.2176 8.87484H20.3886C20.0042 8.87484 19.6927 9.18966 19.6927 9.57788C19.6927 9.96619 20.0042 10.2809 20.3886 10.2809H30.2177C31.078 10.2811 31.7779 9.57403 31.7779 8.70497Z" fill="#1FACC7"/>
<path d="M36.9821 42.8715C36.5977 42.8715 36.2861 43.1863 36.2861 43.5745V44.5213C36.2861 45.664 35.3657 46.5938 34.2343 46.5938H3.44369C2.31244 46.5938 1.39195 45.6641 1.39195 44.5213V10.7276C1.39195 10.5755 1.40959 10.4262 1.44105 10.281H7.77835C9.10144 10.281 10.1778 9.19369 10.1778 7.85719V1.45575C10.3216 1.42397 10.4693 1.40616 10.6199 1.40616H34.2342C35.3656 1.40616 36.286 2.33587 36.286 3.47869V12.8389C36.286 13.2272 36.5976 13.5419 36.982 13.5419C37.3664 13.5419 37.678 13.2271 37.678 12.8389V3.47859C37.6781 1.56056 36.1332 0 34.2343 0H10.62C9.70015 0 8.83526 0.361875 8.18486 1.01888L1.00856 8.26791C0.358151 8.92491 0 9.79847 0 10.7277V44.5214C0 46.4395 1.54481 48 3.44369 48H34.2343C36.1332 48 37.6781 46.4394 37.6781 44.5214V43.5746C37.6781 43.1863 37.3665 42.8715 36.9821 42.8715ZM8.78589 2.40038V7.85719C8.78589 8.41837 8.33391 8.87494 7.77835 8.87494H2.37629L8.78589 2.40038Z" fill="#1FACC7"/>
<path d="M46.5149 25.1249C47.0035 24.4005 47.1299 23.507 46.8618 22.6733C46.5936 21.8397 45.9713 21.1919 45.1546 20.896C44.6128 20.6997 44.2513 20.1972 44.234 19.616C44.2078 18.7399 43.79 17.9419 43.0879 17.4266C42.386 16.9115 41.5055 16.7569 40.6728 17.0023C40.1198 17.1653 39.5354 16.9733 39.1831 16.5134C38.6521 15.8201 37.8499 15.4225 36.9821 15.4225C36.1144 15.4225 35.3121 15.8201 34.781 16.5134C34.4287 16.9733 33.8439 17.1651 33.2915 17.0023C32.4587 16.7567 31.5782 16.9115 30.8761 17.4266C30.1741 17.9419 29.7565 18.7398 29.7302 19.6159C29.7128 20.1971 29.3514 20.6995 28.8095 20.8959C27.9928 21.1918 27.3705 21.8397 27.1025 22.6733C26.8343 23.5069 26.9607 24.4005 27.4493 25.1248C27.7734 25.6055 27.7734 26.2265 27.4493 26.707C26.9607 27.4314 26.8343 28.325 27.1025 29.1586C27.3705 29.9922 27.9928 30.64 28.8095 30.936C29.3514 31.1324 29.7129 31.6348 29.7302 32.2161C29.7544 33.0219 30.12 33.7792 30.7334 34.2934C31.1382 34.6327 31.6244 34.8451 32.1333 34.9161V41.3171C32.1333 41.8572 32.4233 42.3564 32.8901 42.6198C33.3562 42.8829 33.9293 42.8712 34.3849 42.5878L36.9377 41.0004C36.9792 40.9745 37.004 40.9862 37.0269 41.0004L39.5795 42.5878C40.0349 42.8709 40.6078 42.8831 41.0744 42.6197C41.5413 42.3562 41.8312 41.857 41.8312 41.317V34.9159C42.3399 34.845 42.8261 34.6327 43.2309 34.2934C43.8444 33.7792 44.2101 33.022 44.2343 32.216C44.2516 31.6347 44.6131 31.1322 45.1549 30.9359C45.9717 30.64 46.594 29.9921 46.862 29.1585C47.1302 28.3249 47.0038 27.4313 46.5152 26.7069C46.1907 26.2266 46.1907 25.6056 46.5149 25.1249ZM40.309 41.3904L37.7564 39.8031C37.2819 39.508 36.6827 39.5076 36.2077 39.8031L33.6551 41.3903C33.597 41.4261 33.5252 41.3849 33.5252 41.317V34.7826C34.0038 34.7266 34.4782 34.9233 34.781 35.3186C35.3122 36.0118 36.1144 36.4094 36.9822 36.4094C37.8499 36.4094 38.6521 36.0118 39.1831 35.3186C39.486 34.9232 39.9605 34.7266 40.439 34.7826V41.317C40.439 41.3854 40.3663 41.4262 40.309 41.3904ZM45.3646 27.4989C45.6088 27.861 45.6719 28.3075 45.5379 28.7242C45.4039 29.1408 45.0929 29.4646 44.6846 29.6125C43.6004 30.0053 42.8775 31.0106 42.8426 32.1736C42.8303 32.5824 42.6524 32.951 42.3418 33.2114C41.9925 33.5042 41.5196 33.6146 41.0628 33.48C39.9571 33.1541 38.7871 33.5381 38.0821 34.4582C37.8167 34.8046 37.4157 35.0033 36.982 35.0033C36.5484 35.0033 36.1474 34.8047 35.8819 34.4582C35.3437 33.7554 34.5343 33.3654 33.6894 33.3654C33.4279 33.3654 33.1628 33.4028 32.9015 33.4799C32.4402 33.6157 31.9686 33.5018 31.6222 33.2113C31.3116 32.9509 31.1336 32.5823 31.1215 32.1736C31.0866 31.0106 30.3636 30.0053 29.2793 29.6124C28.8711 29.4645 28.5602 29.1408 28.4261 28.7242C28.2921 28.3075 28.3552 27.8609 28.5995 27.4988C29.2479 26.5373 29.2479 25.2948 28.5995 24.3332C28.3552 23.9711 28.2921 23.5245 28.4261 23.1078C28.5601 22.6912 28.8711 22.3673 29.2793 22.2195C30.3636 21.8266 31.0866 20.8213 31.1215 19.6583C31.1346 19.2204 31.3432 18.8216 31.6941 18.5642C32.0448 18.3067 32.4848 18.2294 32.9014 18.352C34.0067 18.678 35.1771 18.2939 35.8819 17.3738C36.1473 17.0273 36.5482 16.8286 36.982 16.8286C37.4157 16.8286 37.8167 17.0273 38.0821 17.3738C38.787 18.2939 39.9567 18.6779 41.0627 18.352C41.479 18.2292 41.9189 18.3066 42.2698 18.5641C42.6207 18.8215 42.8296 19.2204 42.8426 19.6583C42.8775 20.8212 43.6004 21.8266 44.6846 22.2194C45.0929 22.3673 45.4038 22.6911 45.5379 23.1077C45.6719 23.5243 45.6088 23.971 45.3646 24.333C44.7159 25.2947 44.7159 26.5373 45.3646 27.4989Z" fill="#1FACC7"/>
<path d="M36.9821 20.0234C33.7655 20.0234 31.1487 22.6668 31.1487 25.916C31.1487 29.1652 33.7655 31.8085 36.9821 31.8085C40.1986 31.8085 42.8155 29.1652 42.8155 25.916C42.8155 22.6668 40.1986 20.0234 36.9821 20.0234ZM36.9821 30.4025C34.5331 30.4025 32.5406 28.3898 32.5406 25.9161C32.5406 23.4423 34.5331 21.4296 36.9821 21.4296C39.4312 21.4296 41.4235 23.4422 41.4235 25.9161C41.4235 28.3899 39.4311 30.4025 36.9821 30.4025Z" fill="#1FACC7"/>
</svg>
