<svg width="50" height="50" viewBox="0 0 50 50" fill="none" xmlns="http://www.w3.org/2000/svg">
<path d="M50 46.3379V9.46797C50 7.48701 48.3277 5.80586 46.3379 5.80586H35.9718C35.6323 2.54834 32.8646 0 29.5113 0C26.158 0 23.3903 2.54834 23.0508 5.80586H3.66211C1.67002 5.80586 0 7.47441 0 9.46797V46.3379C0 48.3572 1.64277 50 3.66211 50H46.3379C47.8956 50 50 48.5352 50 46.3379ZM34.5012 31.7936L48.5352 17.3029V45.8274L34.5012 31.7936ZM29.5113 1.46484C32.2854 1.46484 34.5423 3.71504 34.5423 6.48096C34.5423 8.45498 33.7604 11.2253 32.5018 13.7108C31.2056 16.2705 29.9728 17.4219 29.5113 17.4219C29.07 17.4219 27.8578 16.3771 26.4833 13.5736C25.2665 11.0919 24.4803 8.30781 24.4803 6.48096C24.4804 3.71504 26.7372 1.46484 29.5113 1.46484ZM1.46484 9.46797C1.46484 9.12539 1.54375 8.80088 1.68418 8.51162L9.6584 16.4858L1.46484 24.6793V9.46797ZM1.46484 46.3379V34.3029L14.4702 21.2976L41.7077 48.5352H3.66211C2.45049 48.5352 1.46484 47.5494 1.46484 46.3379ZM46.3379 48.5352H43.7795L14.9881 19.7438C14.7021 19.4579 14.2383 19.4579 13.9523 19.7438L1.46484 32.2313V26.751L11.2121 17.0037C11.4981 16.7176 11.4981 16.2539 11.2121 15.9679L2.7252 7.48096C3.00957 7.34629 3.32715 7.2707 3.66211 7.2707H7.90654L29.0568 28.4209C29.3447 28.7086 29.8124 28.7068 30.0978 28.4157L39.3595 18.9697C40.0224 18.2935 38.9768 17.2682 38.3135 17.9441L29.5696 26.8619L9.97822 7.2707H23.0508C23.2464 9.59209 24.2355 12.3166 25.168 14.2186C27.1595 18.2804 28.7439 18.8868 29.5113 18.8868C31.3268 18.8868 33.1213 15.73 33.8086 14.3727C35.028 11.9646 35.8108 9.37588 35.974 7.2707H46.3379C47.0095 7.2707 47.6113 7.57393 48.0146 8.0502L41.2188 14.9811C40.5569 15.6563 41.6004 16.6843 42.2648 16.0066L48.5352 9.61172V15.1973L32.9475 31.2923C32.6692 31.5795 32.6729 32.0369 32.9557 32.3197L48.1758 47.5399C47.7829 48.1387 47.106 48.5352 46.3379 48.5352Z" fill="#1FACC7"/>
<path d="M29.5113 10.0778C31.3971 10.0778 32.9313 8.54063 32.9313 6.65098C32.9313 4.76133 31.3971 3.22412 29.5113 3.22412C27.6255 3.22412 26.0913 4.76133 26.0913 6.65098C26.0913 8.54063 27.6256 10.0778 29.5113 10.0778ZM29.5113 4.68906C30.5894 4.68906 31.4664 5.56924 31.4664 6.65107C31.4664 7.73291 30.5895 8.61309 29.5113 8.61309C28.4332 8.61309 27.5562 7.73291 27.5562 6.65107C27.5562 5.56924 28.4333 4.68906 29.5113 4.68906Z" fill="#1FACC7"/>
<path d="M20.5458 31.6146C20.1232 30.767 18.8123 31.4209 19.235 32.2684C19.5828 32.9659 19.7593 33.7159 19.7593 34.4979C19.7593 36.4719 18.9774 39.2422 17.7188 41.7276C16.4226 44.2873 15.1897 45.4387 14.7282 45.4387C14.287 45.4387 13.0747 44.3939 11.7002 41.5904C10.4835 39.1088 9.69727 36.3247 9.69727 34.4979C9.69727 31.7319 11.9541 29.4817 14.7282 29.4817C15.4599 29.4817 16.1669 29.6361 16.8298 29.9405C17.6903 30.3358 18.3018 29.0046 17.4412 28.6094C16.5852 28.2162 15.6725 28.0169 14.7283 28.0169C11.1465 28.0169 8.23252 30.9242 8.23252 34.4979C8.23252 36.9657 9.34443 40.1129 10.3851 42.2353C12.3765 46.2971 13.961 46.9035 14.7283 46.9035C16.5437 46.9035 18.3383 43.7467 19.0256 42.3894C20.4022 39.6709 21.2241 36.7207 21.2241 34.4978C21.224 33.4871 20.9959 32.5171 20.5458 31.6146Z" fill="#1FACC7"/>
<path d="M14.7282 31.2411C12.8425 31.2411 11.3083 32.7783 11.3083 34.668C11.3083 36.5576 12.8425 38.0948 14.7282 38.0948C16.614 38.0948 18.1481 36.5576 18.1481 34.668C18.1481 32.7783 16.614 31.2411 14.7282 31.2411ZM14.7282 36.63C13.6502 36.63 12.7731 35.7498 12.7731 34.668C12.7731 33.5861 13.6502 32.706 14.7282 32.706C15.8063 32.706 16.6833 33.5861 16.6833 34.668C16.6833 35.7498 15.8063 36.63 14.7282 36.63Z" fill="#1FACC7"/>
</svg>
