<svg width="54" height="54" viewBox="0 0 54 54" fill="none" xmlns="http://www.w3.org/2000/svg">
<path d="M33.5511 39.7136C35.1298 39.7136 36.7085 39.1127 37.9105 37.9108C40.3141 35.5072 40.3141 31.5963 37.9105 29.1928C35.5067 26.7891 31.5955 26.7891 29.1918 29.1928C26.7881 31.5963 26.7881 35.5072 29.1918 37.9108C30.3936 39.1126 31.9723 39.7136 33.5511 39.7136ZM30.31 30.3108C31.2037 29.4172 32.3772 28.9705 33.5511 28.9705C34.7248 28.9705 35.8988 29.4174 36.7921 30.3108C38.5793 32.0979 38.5793 35.0057 36.7921 36.7926C35.0051 38.5798 32.097 38.5797 30.31 36.7926C28.5227 35.0057 28.5227 32.0979 30.31 30.3108Z" fill="#1FACC7"/>
<path d="M26.3745 26.3757C23.4329 29.3174 22.5823 33.6922 24.2078 37.5212C24.3784 37.9231 24.8429 38.1104 25.2446 37.94C25.6466 37.7693 25.8341 37.3053 25.6634 36.9033C24.2911 33.6707 25.0093 29.9773 27.4929 27.4938C30.8334 24.1534 36.2691 24.1535 39.6095 27.4938C42.9501 30.8342 42.9501 36.2694 39.6095 39.6098C38.0046 41.2145 35.8711 42.1056 33.6019 42.119C33.5846 42.1191 33.5676 42.1191 33.5503 42.1191C31.3022 42.1191 29.1802 41.2562 27.5706 39.6865C27.2579 39.3815 26.7573 39.3878 26.4525 39.7004C26.1476 40.0129 26.1539 40.5136 26.4666 40.8184C28.3735 42.6783 30.8869 43.7004 33.55 43.7003C33.5704 43.7003 33.5908 43.7003 33.6112 43.7001C36.2993 43.6844 38.8267 42.6287 40.7278 40.7278C44.6848 36.7709 44.6848 30.3325 40.7278 26.3756C36.7703 22.4188 30.3318 22.4188 26.3745 26.3757Z" fill="#1FACC7"/>
<path d="M52.4858 30.002H49.6723C49.2545 28.0956 48.5112 26.2994 47.4623 24.6614L49.45 22.6738C49.7361 22.3878 49.8936 22.0075 49.8936 21.603C49.8936 21.1985 49.7361 20.8183 49.4501 20.5324L46.571 17.6535C46.2849 17.3675 45.9048 17.2099 45.5003 17.2099C45.0958 17.2099 44.7156 17.3674 44.4295 17.6534L42.4417 19.6412C40.8037 18.5923 39.0076 17.8491 37.101 17.4312V14.6179C37.101 13.7831 36.4218 13.1038 35.5868 13.1038H31.5152C31.0448 13.1038 30.6239 13.3194 30.346 13.657H29.8293C29.4924 12.1829 28.9163 10.7908 28.1148 9.51383L29.6355 7.99316C30.1717 7.4569 30.1717 6.58445 29.6355 6.04808L27.3086 3.72128C27.0487 3.46153 26.7033 3.31848 26.3359 3.31848C25.9685 3.31848 25.6231 3.46153 25.3634 3.72139L23.8425 5.24195C22.5659 4.44055 21.1735 3.86444 19.6992 3.52752V1.3754C19.6993 0.617016 19.0823 0 18.3238 0H15.0331C14.2747 0 13.6576 0.617016 13.6576 1.3754V3.52763C12.1834 3.86454 10.7909 4.44076 9.51422 5.24205L7.99369 3.72149C7.73392 3.46163 7.38855 3.31858 7.02105 3.31858C6.65354 3.31858 6.30806 3.46163 6.0483 3.72149L3.72158 6.04819C3.18539 6.58445 3.18539 7.4569 3.72158 7.99327L5.24233 9.51393C4.44089 10.7906 3.86475 12.1829 3.52781 13.6571H1.37547C0.617048 13.6571 0 14.2741 0 15.0325V18.323C0 19.0814 0.617048 19.6984 1.37547 19.6984H3.52781C3.86475 21.1727 4.44089 22.5651 5.24233 23.8416L3.72158 25.3623C3.18529 25.8985 3.18529 26.7711 3.72158 27.3073L6.0484 29.6342C6.58469 30.1703 7.45719 30.1705 7.99369 29.6342L9.51443 28.1135C10.791 28.9149 12.1833 29.491 13.6577 29.8279V30.3453C13.3188 30.6232 13.102 31.0448 13.102 31.5163V35.5878C13.102 36.4227 13.7813 37.1019 14.6162 37.1019H17.4297C17.8476 39.0084 18.5909 40.8046 19.6397 42.4424L17.652 44.4301C17.3659 44.7161 17.2084 45.0963 17.2084 45.5008C17.2084 45.9053 17.3659 46.2856 17.6519 46.5715L20.5311 49.4503C20.8171 49.7363 21.1972 49.8939 21.6017 49.8939C22.0063 49.8939 22.3864 49.7364 22.6725 49.4504L24.6602 47.4627C26.2983 48.5116 28.0946 49.2549 30.001 49.6726V52.4859C30.001 53.3208 30.6803 54 31.5152 54H35.5868C36.4218 54 37.101 53.3208 37.101 52.4859V49.6722C39.0076 49.2545 40.8038 48.5112 42.4418 47.4624L44.4296 49.4501C44.7156 49.736 45.0958 49.8936 45.5003 49.8936C45.9048 49.8936 46.2849 49.7361 46.571 49.4501L49.45 46.5712C49.7361 46.2852 49.8936 45.905 49.8936 45.5005C49.8936 45.096 49.7361 44.7158 49.4501 44.4299L47.4623 42.4421C48.5111 40.8044 49.2544 39.0081 49.6723 37.1016H52.4858C53.3207 37.1016 54 36.4224 54 35.5875V31.516C54.0001 30.6812 53.3207 30.002 52.4858 30.002ZM14.151 28.3175C12.7504 28.0149 11.4323 27.4696 10.233 26.6963C9.69081 26.3471 8.96781 26.4234 8.51333 26.878L7.02105 28.3703L4.9853 26.3347L6.47769 24.8422C6.93217 24.3877 7.0085 23.6646 6.65923 23.1226C5.88594 21.9235 5.34048 20.6054 5.03791 19.2048C4.9016 18.5745 4.33621 18.1169 3.69343 18.1169H1.58136V15.2383H3.69354C4.33621 15.2383 4.9017 14.7808 5.03812 14.1501C5.34058 12.7498 5.88605 11.4317 6.65933 10.2325C7.00861 9.69072 6.93228 8.96755 6.47779 8.51298L4.98541 7.02068L7.02115 4.98504L8.51343 6.47735C8.96792 6.93191 9.69081 7.00824 10.2332 6.65888C11.4325 5.88563 12.7506 5.3402 14.151 5.03775C14.7814 4.90155 15.2391 4.33608 15.2391 3.69324V1.58128H18.118V3.69334C18.118 4.33619 18.5757 4.90165 19.2061 5.03786C20.6064 5.3403 21.9246 5.88574 23.124 6.65888C23.6659 7.00813 24.3891 6.93202 24.8438 6.47735L26.336 4.98504L28.3718 7.02068L26.8795 8.51288C26.4248 8.96744 26.3485 9.69062 26.6979 10.2325C27.4712 11.4319 28.0167 12.7501 28.3191 14.1501C28.4553 14.7807 29.0207 15.2383 29.6636 15.2383H30.0011V17.4312C28.0946 17.849 26.2984 18.5923 24.6604 19.6412L22.6725 17.6534C22.6489 17.6298 22.6238 17.6085 22.599 17.5867C22.8763 15.7654 22.316 13.84 20.9163 12.4404C19.2604 10.7844 16.7724 10.2443 14.578 11.064C14.1689 11.2169 13.9611 11.6724 14.1141 12.0814C14.2669 12.4904 14.7224 12.6981 15.1314 12.5454C16.747 11.9416 18.5789 12.3393 19.7982 13.5584C20.8213 14.5815 21.2335 15.9859 21.0394 17.3183C20.8514 17.3935 20.6787 17.506 20.5312 17.6534L17.6521 20.5323C17.5043 20.68 17.3916 20.8532 17.3165 21.0415C17.107 21.0719 16.8942 21.089 16.6786 21.089C15.5002 21.089 14.3924 20.6301 13.5592 19.797C12.1668 18.4046 11.8667 16.2347 12.8293 14.5201C13.043 14.1393 12.9076 13.6573 12.5268 13.4436C12.1462 13.2299 11.6641 13.3653 11.4503 13.7461C10.1423 16.076 10.5497 19.0241 12.4409 20.9152C13.6092 22.0834 15.144 22.6676 16.6785 22.6676C16.9811 22.6676 17.2834 22.6436 17.5831 22.598C17.6055 22.6236 17.6276 22.6495 17.6519 22.6738L19.6397 24.6615C18.5909 26.2993 17.8475 28.0957 17.4297 30.0021H15.2391V29.6621C15.2391 29.0192 14.7815 28.4538 14.151 28.3175ZM52.4187 35.5203H49.6177C48.91 35.5203 48.2876 36.0242 48.1375 36.7186C47.7584 38.4734 47.0749 40.1252 46.1059 41.628C45.7211 42.2246 45.8051 43.021 46.3054 43.5213L48.2845 45.5004L45.5004 48.2844L43.5212 46.3052C43.021 45.805 42.2246 45.7209 41.6279 46.1056C40.1249 47.0746 38.473 47.7581 36.7181 48.1371C36.0238 48.2871 35.5199 48.9096 35.5199 49.6173V52.4182H31.5825V49.6173C31.5825 48.9098 31.0785 48.2873 30.3841 48.1371C28.6293 47.7582 26.9775 47.0746 25.4744 46.1056C24.8779 45.721 24.0815 45.8049 23.581 46.3052L21.602 48.2843L18.8178 45.5003L20.7968 43.5212C21.2974 43.0207 21.3813 42.2245 20.9965 41.6279C20.0276 40.125 19.344 38.4733 18.9649 36.7184C18.8148 36.0241 18.1923 35.5201 17.4846 35.5201H14.6836V31.5829H17.4846C18.1923 31.5829 18.8148 31.079 18.9649 30.3846C19.344 28.6298 20.0274 26.978 20.9964 25.4753C21.3813 24.8785 21.2974 24.0823 20.7969 23.582L18.8178 21.6028L21.602 18.8188L23.581 20.798C24.0813 21.2983 24.8776 21.3822 25.4744 20.9976C26.9775 20.0286 28.6294 19.3451 30.3841 18.9661C31.0785 18.8161 31.5825 18.1936 31.5825 17.4859V14.6849H35.5199V17.4858C35.5199 18.1935 36.0238 18.816 36.7181 18.966C38.473 19.345 40.1248 20.0285 41.6279 20.9975C42.2245 21.3821 43.0208 21.2984 43.5214 20.7978L45.5004 18.8187L48.2845 21.6027L46.3054 23.5822C45.8048 24.0826 45.7209 24.8788 46.1057 25.4754C47.0747 26.9782 47.7582 28.63 48.1374 30.3849C48.2875 31.0792 48.9099 31.5832 49.6176 31.5832H52.4186V35.5203H52.4187Z" fill="#1FACC7"/>
</svg>
